<?xml version="1.0" encoding="UTF-8"?> <svg xmlns="http://www.w3.org/2000/svg" width="564" height="24" viewBox="0 0 564 24" fill="none"><path fill-rule="evenodd" clip-rule="evenodd" d="M38.4834 7.67777C38.4462 11.024 41.4594 12.883 43.7472 13.9985C46.0908 15.1325 46.872 15.8761 46.872 16.8799C46.8534 18.4415 45.012 19.1294 43.2636 19.1479C40.2504 19.2037 38.4834 18.33 37.0884 17.6793L36.0096 22.773C37.4046 23.4237 40.0086 23.9814 42.687 24C48.9924 24 53.1402 20.8768 53.1588 16.062C53.1774 9.92719 44.6772 9.59256 44.733 6.8598C44.7516 6.02324 45.5514 5.1495 47.2812 4.92641C48.1368 4.81487 50.5176 4.72192 53.2146 5.96747L54.2748 1.04105C52.8054 0.501936 50.9454 0 48.639 0C42.687 0 38.5206 3.16034 38.4834 7.67777ZM64.4118 0.427575C63.2586 0.427575 62.2914 1.09682 61.845 2.13788L52.824 23.6654H59.148L60.4128 20.189H68.1318L68.8572 23.6654H74.4L69.5454 0.427575H64.4118ZM65.3046 6.69249L67.1274 15.4113H62.124L65.3046 6.69249ZM30.8202 0.427575L25.854 23.6468H31.8618L36.8466 0.427575H30.8202ZM21.9294 0.427575L15.6798 16.2293L13.1502 2.78854C12.8526 1.28273 11.6808 0.427575 10.3788 0.427575H0.1488L0 1.09682C2.1018 1.54299 4.4826 2.2866 5.9334 3.06739C6.8262 3.55074 7.068 3.95972 7.3656 5.11232L12.1644 23.6468H18.5256L28.2534 0.427575H21.9294Z" fill="#081F2D"></path><path d="M137.279 19.4333V19.0333H137.444V18.9667H137.049V19.0333H137.213V19.4333H137.279ZM138.037 19.4333V18.9667H137.906L137.774 19.3L137.642 18.9667H137.51V19.4333H137.609V19.0667L137.741 19.3667H137.84L137.971 19.0667V19.4333H138.037ZM118.162 21.7667C118.261 21.8333 118.359 21.9333 118.458 22C116.58 23.2667 114.305 24 111.899 24C105.307 24 100 18.6333 100 12C100 5.36667 105.307 0 111.866 0C114.305 0 116.547 0.733333 118.425 2C118.327 2.06667 118.228 2.16667 118.129 2.23333C115.327 4.7 113.745 8.23333 113.745 12C113.745 15.7333 115.36 19.3 118.162 21.7667ZM126.534 0C124.095 0 121.853 0.733333 119.975 2C120.073 2.06667 120.172 2.16667 120.271 2.23333C123.073 4.7 124.655 8.23333 124.655 12C124.655 15.7333 123.04 19.3 120.271 21.7667C120.172 21.8333 120.073 21.9333 119.975 22C121.853 23.2667 124.128 24 126.534 24C133.093 24 138.4 18.6333 138.4 12C138.4 5.36667 133.093 0 126.534 0ZM119.184 2.56667C119.019 2.7 118.887 2.8 118.722 2.93333C116.25 5.13333 114.668 8.4 114.668 12C114.668 15.6 116.25 18.8667 118.755 21.0667C118.887 21.2 119.052 21.3333 119.216 21.4333C119.381 21.3 119.513 21.2 119.678 21.0667C122.15 18.8667 123.732 15.6 123.732 12C123.732 8.4 122.15 5.13333 119.645 2.93333C119.513 2.83333 119.348 2.7 119.184 2.56667Z" fill="#081F2D"></path><g clip-path="url(#clip0)"><path d="M214.855 10.5008H216.239H217.648V5.26954V0H216.252H214.855V5.24402V10.5008Z" fill="#081F2D"></path><path d="M209.333 4.50399H206.413V2.38596H209.333C210.171 2.38596 210.59 2.88357 210.59 3.44498C210.59 4.0319 210.171 4.50399 209.333 4.50399ZM213.395 3.39394C213.395 1.39075 211.961 0 209.663 0H203.62V10.5008H206.413V6.82616H207.429L210.602 10.5008H214.068L210.602 6.71132C212.341 6.32855 213.395 5.03987 213.395 3.39394Z" fill="#081F2D"></path><path d="M221.913 5.33333V5.14195C221.913 3.58533 222.776 2.46252 224.566 2.46252H227.664V0H224.325C220.885 0 219.12 2.2201 219.12 5.14195V5.34609C219.12 8.59968 221.113 10.488 224.198 10.488H225.15L226.267 8.10207H224.63C222.954 8.11483 221.913 7.17065 221.913 5.33333Z" fill="#081F2D"></path><path d="M168.913 6.06061L170.373 2.55183L171.833 6.06061H168.913ZM168.608 0L164 10.5008H167.072L167.948 8.37002H172.785L173.673 10.5008H176.822L172.214 0H168.608Z" fill="#081F2D"></path><path d="M184.121 6.60925L181.734 0H177.354V10.5008H180.097V2.93461L182.851 10.5008H185.327L188.094 2.93461V10.5008H190.836V0H186.495L184.121 6.60925Z" fill="#081F2D"></path><path d="M192.97 10.5008H201.793V8.11483H195.763V6.43062H201.653V4.04466H195.763V2.38596H201.793V0H192.97V10.5008Z" fill="#081F2D"></path><path d="M231.345 6.06061L232.818 2.55183L234.278 6.06061H231.345ZM231.054 0L226.445 10.5008H229.517L230.393 8.37002H235.23L236.119 10.5008H239.267L234.659 0H231.054Z" fill="#081F2D"></path><path d="M247.57 6.4051L243.317 0H239.788V10.5008H242.568V3.85327L246.948 10.5008H250.325V0H247.57V6.4051Z" fill="#081F2D"></path><path d="M238.379 17.5569H235.814C235.268 17.5569 234.862 17.2252 234.862 16.7148C234.862 16.2172 235.268 15.8854 235.814 15.8854H240.448L241.54 13.4995H235.802C233.428 13.4995 232.069 14.903 232.069 16.8041C232.069 18.7818 233.377 19.9429 235.421 19.9429H237.985C238.556 19.9429 238.937 20.2746 238.937 20.785C238.937 21.2953 238.544 21.6271 237.985 21.6271H232.387V24.013H238.01C240.346 24.013 241.743 22.635 241.743 20.6063C241.743 18.6797 240.511 17.5569 238.379 17.5569Z" fill="#081F2D"></path><path d="M216.556 18.0035H213.637V15.8854H216.556C217.394 15.8854 217.813 16.3831 217.813 16.9445C217.8 17.5314 217.382 18.0035 216.556 18.0035ZM220.606 16.8934C220.606 14.8902 219.171 13.4995 216.874 13.4995H210.844V23.9875H213.637V20.3129H214.652L217.826 23.9875H221.292L217.826 20.198C219.565 19.828 220.606 18.5394 220.606 16.8934Z" fill="#081F2D"></path><path d="M222.065 24.0003H230.901V21.6143H224.858V19.9301H230.749V17.5569H224.858V15.8854H230.901V13.4995H222.065V24.0003Z" fill="#081F2D"></path><path d="M205.588 18.1949H202.592V15.8854H205.588C206.425 15.8854 206.844 16.4086 206.844 17.0593C206.844 17.6845 206.425 18.1949 205.588 18.1949ZM205.918 13.4995H199.799V24.0003H202.592V20.5808H205.829C208.19 20.5808 209.65 19.0752 209.65 17.0465C209.65 14.9413 208.215 13.4995 205.918 13.4995Z" fill="#081F2D"></path><path d="M248.635 17.5569H246.071C245.525 17.5569 245.119 17.2252 245.119 16.7148C245.119 16.2172 245.525 15.8854 246.071 15.8854H250.705L251.796 13.4995H246.058C243.685 13.4995 242.326 14.903 242.326 16.8041C242.326 18.7818 243.634 19.9429 245.678 19.9429H248.242C248.813 19.9429 249.194 20.2746 249.194 20.785C249.194 21.2953 248.8 21.6271 248.242 21.6271H242.644V24.013H248.255C250.59 24.013 251.987 22.635 251.987 20.6063C252 18.6797 250.768 17.5569 248.635 17.5569Z" fill="#081F2D"></path><path d="M177.354 24.0003H186.177V21.6143H180.135V19.9301H186.025V17.5569H180.135V15.8854H186.177V13.4995H177.354V24.0003Z" fill="#081F2D"></path><path d="M199.291 13.4995H195.737L193.033 16.6638L190.316 13.4995H186.673L191.268 18.6925L186.584 24.0003H190.139L192.982 20.6701L195.826 24.0003H199.469L194.759 18.6287L199.291 13.4995Z" fill="#081F2D"></path></g><path fill-rule="evenodd" clip-rule="evenodd" d="M282.567 3.37989H277.601V20.5488H282.495C285.146 20.5488 287.008 19.9788 288.68 18.554C290.614 16.963 291.832 14.5171 291.832 11.9524C291.832 6.91814 288.035 3.37989 282.567 3.37989ZM286.483 16.3218C285.385 17.2242 284.047 17.6754 281.851 17.6754H280.943V6.32448H281.851C284.047 6.32448 285.337 6.70442 286.483 7.67804C287.653 8.69915 288.345 10.2902 288.345 11.9762C288.345 13.6385 287.653 15.3007 286.483 16.3218ZM293.384 20.5488H296.726V3.37989H293.384V20.5488ZM304.964 9.98147C302.911 9.22157 302.314 8.77039 302.314 7.79677C302.314 6.70442 303.412 5.94453 304.821 5.94453C305.848 5.94453 306.683 6.32448 307.519 7.29809L309.334 5.0659C307.853 3.78358 306.11 3.14242 304.248 3.14242C301.168 3.11867 298.851 5.23213 298.851 8.05799C298.851 10.4327 299.95 11.5725 303.102 12.7361C304.463 13.1873 305.107 13.496 305.418 13.686C306.134 14.1371 306.445 14.7783 306.445 15.4907C306.445 16.8918 305.346 17.9129 303.794 17.9129C302.242 17.9129 300.905 17.0817 300.117 15.6094L298.016 17.7229C299.568 19.9551 301.43 20.9999 304.009 20.9999C307.495 20.9999 309.931 18.6965 309.931 15.372C309.931 12.6174 308.761 11.3825 304.964 9.98147ZM310.957 11.9762C310.957 17.0342 314.945 20.9524 320.102 20.9524C321.511 20.9524 322.801 20.6912 324.281 20.0026V15.9894C322.92 17.3429 321.774 17.9129 320.222 17.9129C316.879 17.9129 314.42 15.4195 314.42 11.9524C314.42 8.6754 316.927 6.06326 320.079 6.06326C321.678 6.06326 322.92 6.63318 324.257 7.98675V4.09229C322.872 3.30865 321.631 2.99994 320.15 2.99994C315.064 2.99994 310.957 7.03688 310.957 11.9762Z" fill="#081F2D"></path><path fill-rule="evenodd" clip-rule="evenodd" d="M334.787 2.99994C329.701 2.99994 325.57 6.96564 325.57 11.8337C325.57 17.0817 329.51 20.9287 334.787 20.9287C339.945 20.9287 344.004 17.0342 344.004 11.9524C343.98 6.96564 339.992 2.99994 334.787 2.99994Z" fill="#081F2D"></path><path fill-rule="evenodd" clip-rule="evenodd" d="M351.573 14.9207L347.012 3.37985H343.287L350.617 20.9999H352.432L359.906 3.37985H356.229L351.573 14.9207ZM361.434 20.5487H370.961V17.6754H364.777V13.0448H370.698V10.1002H364.777V6.32444H370.961V3.37985H361.434V20.5487ZM384.285 8.4379C384.285 5.23209 382.088 3.37985 378.172 3.37985H373.206V20.5487H376.548V13.6859H377.002L381.634 20.5487H385.765L380.345 13.306C382.876 12.8073 384.285 11.0738 384.285 8.4379ZM377.527 11.335H376.572V6.06323H377.599C379.724 6.06323 380.822 6.9656 380.822 8.62787C380.822 10.3614 379.724 11.335 377.527 11.335ZM386.266 4.89964C386.266 5.04212 386.171 5.08961 386.004 5.08961H385.932V4.70967H386.004C386.171 4.70967 386.266 4.78091 386.266 4.89964ZM386.792 5.9445L386.29 5.32708C386.505 5.27959 386.625 5.11336 386.625 4.89964C386.625 4.61468 386.41 4.44845 386.052 4.44845H385.574V5.96824H385.932V5.35083L386.362 5.9445H386.792ZM387.436 5.1846C387.436 4.4722 386.84 3.87853 386.123 3.87853C385.407 3.87853 384.81 4.4722 384.81 5.1846C384.81 5.92075 385.407 6.51442 386.147 6.51442C386.84 6.51442 387.436 5.92075 387.436 5.1846ZM387.174 5.1846C387.174 5.77827 386.696 6.2532 386.123 6.2532C385.55 6.2532 385.073 5.77827 385.073 5.1846C385.073 4.59093 385.55 4.09225 386.123 4.09225C386.696 4.116 387.174 4.59093 387.174 5.1846Z" fill="#081F2D"></path><g clip-path="url(#clip1)"><path fill-rule="evenodd" clip-rule="evenodd" d="M443.03 12.1041C443.03 18.6506 437.054 24.0314 430.51 23.9999H424.876C418.252 24.0314 412.801 18.6519 412.801 12.1041C412.801 4.94615 418.252 -0.00274025 424.876 1.13867e-06H430.51C437.054 -0.00274025 443.03 4.94478 443.03 12.1041ZM431.851 11.9789C431.847 9.01147 429.996 6.48149 427.389 5.47909V18.4787C429.996 17.4749 431.847 14.9463 431.851 11.9789ZM422.416 5.47909C419.81 6.48423 417.962 9.01284 417.956 11.9789C417.962 14.9436 419.81 17.4708 422.416 18.4759V5.47909ZM413.944 11.9789C413.946 5.90968 418.85 0.993703 424.903 0.99096C430.957 0.993703 435.862 5.90968 435.863 11.9789C435.862 18.0454 430.957 22.9627 424.903 22.9641C418.85 22.9627 413.946 18.0454 413.944 11.9789Z" fill="#081F2D"></path><path fill-rule="evenodd" clip-rule="evenodd" d="M448.103 11.0832C448.103 12.0554 448.796 12.1692 449.414 12.1692C452.134 12.1692 453.027 10.111 453.027 8.22958C453.027 5.86964 451.515 4.16653 449.087 4.16653C448.569 4.16653 448.331 4.20355 448.103 4.21726V11.0832ZM446.869 5.16327C446.869 4.02649 446.277 4.10191 445.711 4.08957V3.76184C446.202 3.78515 446.706 3.78515 447.197 3.78515C447.726 3.78515 448.443 3.76184 449.377 3.76184C452.636 3.76184 454.412 5.94352 454.412 8.18005C454.412 9.42927 453.683 12.5722 449.225 12.5722C448.583 12.5722 447.991 12.5475 447.398 12.5475C446.832 12.5475 446.277 12.5599 445.711 12.5722V12.2445C446.466 12.1691 446.832 12.143 446.869 11.2846V5.16327Z" fill="#081F2D"></path><path fill-rule="evenodd" clip-rule="evenodd" d="M456.202 4.86041C455.875 4.86041 455.585 4.55736 455.585 4.22963C455.585 3.91287 455.888 3.62216 456.202 3.62216C456.527 3.62216 456.819 3.88819 456.819 4.22963C456.819 4.57108 456.541 4.86041 456.202 4.86041ZM454.855 12.2446H455.092C455.445 12.2446 455.698 12.2446 455.698 11.8277V8.4064C455.698 7.85241 455.51 7.77425 455.043 7.52468V7.32173C455.634 7.14347 456.341 6.90624 456.391 6.86785C456.478 6.81711 456.555 6.8034 456.618 6.8034C456.679 6.8034 456.705 6.88019 456.705 6.98166V11.8277C456.705 12.2446 456.982 12.2446 457.335 12.2446H457.548V12.5737C457.12 12.5737 456.679 12.5476 456.228 12.5476C455.775 12.5476 455.319 12.56 454.855 12.5737V12.2446Z" fill="#081F2D"></path><path fill-rule="evenodd" clip-rule="evenodd" d="M458.746 8.48229C458.746 8.01606 458.605 7.8899 458.015 7.64993V7.41133C458.555 7.23444 459.071 7.06989 459.677 6.80386C459.714 6.80386 459.751 6.82992 459.751 6.93002V7.75141C460.471 7.23444 461.088 6.80386 461.932 6.80386C463.001 6.80386 463.38 7.58686 463.38 8.57142V11.8268C463.38 12.245 463.656 12.245 464.01 12.245H464.237V12.5728C463.793 12.5728 463.354 12.5481 462.901 12.5481C462.447 12.5481 461.994 12.5604 461.541 12.5728V12.245H461.767C462.121 12.245 462.37 12.245 462.37 11.8268V8.55908C462.37 7.83917 461.932 7.48538 461.214 7.48538C460.812 7.48538 460.169 7.81449 459.751 8.09148V11.8268C459.751 12.245 460.029 12.245 460.382 12.245H460.609V12.5728C460.169 12.5728 459.728 12.5481 459.274 12.5481C458.821 12.5481 458.367 12.5604 457.915 12.5728V12.245H458.142C458.492 12.245 458.746 12.245 458.746 11.8268V8.48229Z" fill="#081F2D"></path><path fill-rule="evenodd" clip-rule="evenodd" d="M467.423 8.68514C467.736 8.68514 467.775 8.52059 467.775 8.36975C467.775 7.72526 467.385 7.20829 466.679 7.20829C465.911 7.20829 465.383 7.77462 465.231 8.68514H467.423ZM465.193 9.08821C465.168 9.20339 465.168 9.39263 465.193 9.82183C465.268 11.0203 466.037 12.0049 467.044 12.0049C467.736 12.0049 468.28 11.6264 468.745 11.1588L468.921 11.3371C468.341 12.1064 467.623 12.7618 466.592 12.7618C464.589 12.7618 464.186 10.8174 464.186 10.0111C464.186 7.53594 465.848 6.80368 466.728 6.80368C467.749 6.80368 468.846 7.4468 468.858 8.78516C468.858 8.86195 468.858 8.93737 468.846 9.01279L468.731 9.08821H465.193Z" fill="#081F2D"></path><path fill-rule="evenodd" clip-rule="evenodd" d="M469.148 12.245H469.488C469.839 12.245 470.091 12.245 470.091 11.8268V8.28068C470.091 7.88987 469.627 7.81445 469.437 7.71298V7.52375C470.357 7.13157 470.86 6.80383 470.975 6.80383C471.05 6.80383 471.086 6.84223 471.086 6.96838V8.10379H471.113C471.427 7.61288 471.958 6.80383 472.724 6.80383C473.04 6.80383 473.442 7.01775 473.442 7.47301C473.442 7.81445 473.204 8.1175 472.851 8.1175C472.458 8.1175 472.458 7.81445 472.019 7.81445C471.804 7.81445 471.1 8.10379 471.1 8.8621V11.8268C471.1 12.245 471.35 12.245 471.704 12.245H472.409V12.5727C471.717 12.5604 471.189 12.5481 470.647 12.5481C470.131 12.5481 469.601 12.5604 469.148 12.5727V12.245Z" fill="#081F2D"></path><path fill-rule="evenodd" clip-rule="evenodd" d="M473.997 10.8175C474.161 11.6512 474.663 12.3588 475.584 12.3588C476.326 12.3588 476.602 11.9036 476.602 11.462C476.602 9.97282 473.857 10.4514 473.857 8.41918C473.857 7.71298 474.425 6.80383 475.81 6.80383C476.212 6.80383 476.754 6.91765 477.245 7.17133L477.333 8.45758H477.044C476.918 7.66224 476.477 7.20836 475.671 7.20836C475.167 7.20836 474.689 7.49906 474.689 8.04071C474.689 9.51893 477.61 9.06368 477.61 11.0452C477.61 11.8775 476.943 12.762 475.444 12.762C474.939 12.762 474.35 12.5851 473.909 12.3328L473.77 10.882L473.997 10.8175Z" fill="#081F2D"></path><path fill-rule="evenodd" clip-rule="evenodd" d="M488.982 6.04676H488.667C488.428 4.56991 487.382 3.97615 485.973 3.97615C484.523 3.97615 482.419 4.94837 482.419 7.9775C482.419 10.528 484.234 12.3587 486.173 12.3587C487.419 12.3587 488.452 11.5003 488.705 10.1743L488.994 10.2497L488.705 12.0927C488.176 12.4204 486.753 12.7618 485.921 12.7618C482.975 12.7618 481.111 10.8558 481.111 8.01589C481.111 5.42832 483.417 3.57162 485.884 3.57162C486.903 3.57162 487.886 3.9021 488.856 4.24217L488.982 6.04676Z" fill="#081F2D"></path><path fill-rule="evenodd" clip-rule="evenodd" d="M489.437 12.2451H489.675C490.028 12.2451 490.28 12.2451 490.28 11.8269V4.79777C490.28 3.97639 490.092 3.9517 489.612 3.81321V3.61163C490.116 3.44708 490.645 3.21945 490.909 3.06724C491.047 2.99182 491.149 2.92874 491.186 2.92874C491.264 2.92874 491.288 3.00416 491.288 3.10563V11.8269C491.288 12.2451 491.565 12.2451 491.918 12.2451H492.131V12.5728C491.703 12.5728 491.264 12.5482 490.809 12.5482C490.356 12.5482 489.904 12.5605 489.436 12.5728V12.2451H489.437Z" fill="#081F2D"></path><path fill-rule="evenodd" clip-rule="evenodd" d="M497.523 11.8775C497.523 12.1065 497.661 12.1188 497.874 12.1188C498.025 12.1188 498.214 12.1065 498.378 12.1065V12.3711C497.836 12.4219 496.804 12.6865 496.565 12.762L496.5 12.7236V11.7033C495.747 12.3204 495.165 12.762 494.271 12.762C493.591 12.762 492.885 12.3204 492.885 11.2604V8.02835C492.885 7.70061 492.836 7.38522 492.133 7.32215V7.08217C492.586 7.06983 493.591 6.99304 493.756 6.99304C493.895 6.99304 493.895 7.08217 493.895 7.35917V10.6159C493.895 10.9944 493.895 12.0804 494.99 12.0804C495.418 12.0804 495.985 11.7527 496.514 11.3112V7.91453C496.514 7.66222 495.909 7.52372 495.456 7.39756V7.16994C496.588 7.09452 497.295 6.99304 497.42 6.99304C497.523 6.99304 497.523 7.08217 497.523 7.22067V11.8775Z" fill="#081F2D"></path><path fill-rule="evenodd" clip-rule="evenodd" d="M500.028 11.1454C500.028 11.6253 500.481 12.4344 501.324 12.4344C502.673 12.4344 503.239 11.1084 503.239 9.98392C503.239 8.62088 502.207 7.48548 501.224 7.48548C500.757 7.48548 500.367 7.78853 500.028 8.07924V11.1454ZM500.028 7.71314C500.531 7.28394 501.21 6.80262 501.904 6.80262C503.365 6.80262 504.246 8.07927 504.246 9.45465C504.246 11.1084 503.037 12.7621 501.236 12.7621C500.304 12.7621 499.814 12.4591 499.486 12.3206L499.108 12.6099L498.846 12.4714C498.956 11.7268 499.021 10.9946 499.021 10.2253V4.79783C499.021 3.97645 498.83 3.95039 498.352 3.8119V3.61032C498.858 3.44714 499.385 3.21951 499.65 3.0673C499.788 2.99188 499.888 2.9288 499.928 2.9288C500.002 2.9288 500.028 3.00422 500.028 3.1057V7.71314Z" fill="#081F2D"></path><path fill-rule="evenodd" clip-rule="evenodd" d="M445.697 19.9111H445.793C446.039 19.9111 446.299 19.8782 446.299 19.5203V15.9221C446.299 15.5642 446.039 15.5299 445.793 15.5299H445.697V15.3242C445.964 15.3242 446.375 15.3517 446.711 15.3517C447.053 15.3517 447.465 15.3242 447.787 15.3242V15.5299H447.691C447.445 15.5299 447.185 15.5642 447.185 15.9221V19.5203C447.185 19.8782 447.445 19.9111 447.691 19.9111H447.787V20.1182C447.458 20.1182 447.045 20.0908 446.704 20.0908C446.368 20.0908 445.964 20.1182 445.697 20.1182V19.9111Z" fill="#081F2D"></path><path fill-rule="evenodd" clip-rule="evenodd" d="M447.757 20.0893V19.9425H447.69C447.445 19.9425 447.155 19.9 447.154 19.5202V15.922C447.155 15.5435 447.445 15.4996 447.69 15.4996H447.757V15.3543C447.441 15.3543 447.044 15.3803 446.71 15.3803C446.386 15.3803 445.992 15.3556 445.727 15.3543V15.4996H445.791C446.036 15.4996 446.329 15.5435 446.329 15.922V19.5202C446.329 19.9 446.036 19.9425 445.791 19.9425H445.727V20.0893C445.992 20.0865 446.379 20.0605 446.704 20.0605C447.037 20.0605 447.434 20.0879 447.757 20.0893ZM447.786 20.1471C447.455 20.1471 447.044 20.1197 446.704 20.1197C446.369 20.1197 445.965 20.1471 445.697 20.1471H445.668V20.1183V19.9126V19.8825H445.697H445.792C446.04 19.877 446.267 19.8564 446.27 19.5205V15.9223C446.267 15.5863 446.042 15.5644 445.792 15.5589H445.668V15.5301V15.2942H445.697C445.965 15.2942 446.377 15.3203 446.711 15.3203C447.053 15.3203 447.462 15.2942 447.786 15.2942H447.818V15.3258V15.5589H447.786H447.69C447.443 15.5644 447.216 15.5863 447.214 15.9223V19.5205C447.216 19.8564 447.443 19.877 447.69 19.8825H447.818V19.9126V20.1471H447.786Z" fill="#081F2D"></path><path fill-rule="evenodd" clip-rule="evenodd" d="M452.494 18.7649L452.508 18.7512V16.176C452.508 15.6124 452.118 15.5301 451.911 15.5301H451.761V15.3244C452.082 15.3244 452.399 15.3519 452.72 15.3519C453.001 15.3519 453.282 15.3244 453.563 15.3244V15.5301H453.46C453.172 15.5301 452.85 15.585 452.85 16.4022V19.5287C452.85 19.7673 452.858 20.0087 452.891 20.2212H452.631L449.102 16.2788V19.1078C449.102 19.707 449.217 19.9113 449.745 19.9113H449.862V20.1184C449.567 20.1184 449.273 20.0909 448.979 20.0909C448.671 20.0909 448.357 20.1184 448.046 20.1184V19.9113H448.142C448.615 19.9113 448.76 19.5891 448.76 19.0406V16.1472C448.76 15.7632 448.443 15.5301 448.135 15.5301H448.046V15.3244C448.306 15.3244 448.574 15.3519 448.834 15.3519C449.041 15.3519 449.239 15.3244 449.444 15.3244L452.494 18.7649Z" fill="#081F2D"></path><path fill-rule="evenodd" clip-rule="evenodd" d="M452.479 18.751V18.7496L452.474 18.7441L452.479 18.751ZM452.496 18.7647L452.516 18.7441L452.496 18.7647ZM452.631 20.1904H452.858C452.826 19.9834 452.821 19.7557 452.821 19.5267V16.4016C452.821 15.5775 453.166 15.4993 453.461 15.4993H453.534V15.354C453.263 15.3553 452.993 15.38 452.721 15.38C452.406 15.38 452.103 15.3553 451.792 15.354L451.791 15.4993H451.912C452.122 15.4993 452.539 15.5939 452.539 16.1767L452.528 18.7712L452.515 18.7862L452.493 18.8082L449.444 15.354C449.241 15.354 449.042 15.38 448.834 15.38C448.582 15.38 448.326 15.3553 448.077 15.354L448.076 15.4993H448.136C448.459 15.4993 448.789 15.7462 448.789 16.1479V19.0399C448.789 19.5884 448.635 19.9409 448.143 19.9422L448.077 19.9409V20.0889C448.374 20.0862 448.679 20.0615 448.979 20.0615C449.265 20.0615 449.549 20.0862 449.833 20.0889V19.9422H449.746C449.206 19.9409 449.073 19.705 449.073 19.1085V16.2014L452.631 20.1904ZM452.892 20.251L452.609 20.2401L449.132 16.3553V19.1088C449.14 19.7053 449.231 19.8753 449.747 19.8822H449.893V19.911V20.1482H449.863C449.566 20.1482 449.27 20.1208 448.979 20.1208C448.672 20.1208 448.356 20.1482 448.047 20.1482H448.017V20.118V19.8822H448.047H448.143C448.596 19.8794 448.726 19.5873 448.731 19.0402V16.1482C448.73 15.7821 448.43 15.5599 448.136 15.5599H448.016V15.5284V15.2939H448.047C448.308 15.2939 448.577 15.3213 448.834 15.3213C449.038 15.3213 449.236 15.2939 449.467 15.3049L452.479 18.7029V16.177C452.475 15.6299 452.111 15.5641 451.913 15.5599H451.731V15.5284V15.2939H451.762C452.085 15.2939 452.4 15.3213 452.721 15.3213C452.999 15.3213 453.281 15.2939 453.563 15.2939H453.593V15.3241V15.5586H453.563H453.462C453.178 15.5682 452.888 15.5929 452.88 16.4019V19.527C452.88 19.767 452.887 20.0083 452.92 20.2154L452.927 20.251H452.892Z" fill="#081F2D"></path><path fill-rule="evenodd" clip-rule="evenodd" d="M454.59 15.6674C454.075 15.6674 454.055 15.7908 453.952 16.2927H453.747C453.773 16.1007 453.809 15.9087 453.829 15.7085C453.857 15.5165 453.87 15.3245 453.87 15.1257H454.036C454.091 15.3314 454.262 15.3245 454.448 15.3245H457.982C458.167 15.3245 458.338 15.3177 458.353 15.112L458.516 15.1394C458.49 15.3245 458.462 15.5097 458.44 15.6962C458.429 15.8813 458.429 16.0664 458.429 16.2515L458.221 16.3283C458.209 16.0746 458.174 15.6674 457.715 15.6674H456.592V19.3218C456.592 19.8511 456.831 19.9114 457.16 19.9114H457.291V20.1199C457.023 20.1199 456.543 20.0924 456.173 20.0924C455.761 20.0924 455.282 20.1199 455.015 20.1199V19.9114H455.144C455.523 19.9114 455.713 19.8785 455.713 19.3355V15.6674H454.59Z" fill="#081F2D"></path><path fill-rule="evenodd" clip-rule="evenodd" d="M457.291 20.1477C457.021 20.1477 456.542 20.1203 456.174 20.1203C455.764 20.1203 455.283 20.1477 455.015 20.1477H454.985V20.1189V19.8817H455.015H455.145C455.523 19.8735 455.675 19.868 455.683 19.3359V15.6966H454.59V15.6664V15.6363H455.743V19.3359C455.743 19.8872 455.521 19.942 455.145 19.9434H455.044V20.0874C455.315 20.086 455.776 20.0613 456.174 20.0613C456.53 20.0613 456.988 20.086 457.261 20.0874V19.9434H457.159C456.828 19.942 456.563 19.8611 456.563 19.3208V15.6363H457.716C458.175 15.639 458.235 16.0312 458.25 16.2849L458.399 16.2314C458.399 16.0518 458.4 15.8721 458.411 15.6911C458.432 15.5142 458.458 15.3387 458.482 15.1632L458.378 15.1467C458.346 15.3469 458.154 15.3565 457.982 15.3538H454.447H454.412C454.25 15.3538 454.074 15.3469 454.012 15.1549H453.899C453.899 15.3456 453.886 15.5293 453.859 15.7117C453.84 15.9009 453.808 16.0819 453.784 16.2629H453.929C454.019 15.7844 454.078 15.6294 454.59 15.6363V15.6664V15.6966C454.083 15.7062 454.093 15.7926 453.982 16.3L453.977 16.3233H453.953H453.714L453.717 16.2876C453.744 16.0943 453.78 15.9037 453.799 15.7035C453.829 15.5128 453.841 15.3222 453.841 15.1248V15.0946H453.87H454.059L454.064 15.1165C454.111 15.2907 454.238 15.2907 454.412 15.2934H454.447H457.982C458.173 15.2907 458.311 15.288 458.322 15.1083L458.326 15.0768L458.357 15.0823L458.549 15.1138L458.545 15.144C458.518 15.3264 458.491 15.5128 458.47 15.6966C458.458 15.8803 458.458 16.0655 458.458 16.2506V16.2725L458.439 16.2808L458.195 16.3685L458.194 16.3287C458.175 16.0709 458.149 15.6966 457.716 15.6966H456.622V19.3208C456.628 19.8392 456.834 19.8748 457.159 19.8817H457.319V19.9119V20.1477H457.291Z" fill="#081F2D"></path><path fill-rule="evenodd" clip-rule="evenodd" d="M458.735 19.9111H458.831C459.079 19.9111 459.339 19.8782 459.339 19.5203V15.9221C459.339 15.5642 459.079 15.5299 458.831 15.5299H458.735V15.3242C459.153 15.3242 459.866 15.3517 460.44 15.3517C461.018 15.3517 461.729 15.3242 462.194 15.3242C462.184 15.6191 462.189 16.073 462.21 16.3746L462.004 16.4295C461.97 15.9838 461.889 15.6273 461.168 15.6273H460.217V17.4264H461.031C461.443 17.4264 461.532 17.1933 461.572 16.8217H461.778C461.765 17.0891 461.757 17.3578 461.757 17.6252C461.757 17.8858 461.765 18.1463 461.778 18.4082L461.572 18.4494C461.532 18.0366 461.51 17.7692 461.038 17.7692H460.217V19.3681C460.217 19.8165 460.613 19.8165 461.051 19.8165C461.874 19.8165 462.237 19.7603 462.442 18.9787L462.635 19.0253C462.545 19.39 462.464 19.7534 462.402 20.1182C461.962 20.1182 461.174 20.0908 460.559 20.0908C459.941 20.0908 459.125 20.1182 458.735 20.1182V19.9111Z" fill="#081F2D"></path><path fill-rule="evenodd" clip-rule="evenodd" d="M462.376 20.0875C462.435 19.7419 462.514 19.3936 462.598 19.0481L462.461 19.0138C462.257 19.7831 461.859 19.8516 461.05 19.8461C460.619 19.8461 460.187 19.8461 460.184 19.3689V17.7399H461.036C461.515 17.7344 461.563 18.0237 461.599 18.4145L461.746 18.3844C461.733 18.1307 461.726 17.877 461.726 17.6261C461.726 17.3669 461.733 17.1105 461.746 16.8513H461.599C461.559 17.2078 461.448 17.4601 461.031 17.456H460.184V15.5966H461.168C461.881 15.5911 462 15.96 462.028 16.3919L462.176 16.3521C462.165 16.1574 462.157 15.9092 462.157 15.6802C462.157 15.5623 462.16 15.4512 462.164 15.3539C461.699 15.3566 461.003 15.3813 460.44 15.3813C459.877 15.3813 459.184 15.3566 458.764 15.3539V15.5006H458.831C459.076 15.5006 459.367 15.5431 459.368 15.9216V19.5198C459.367 19.8996 459.076 19.9407 458.831 19.9435H458.764V20.0875C459.163 20.0875 459.955 20.0614 460.557 20.0614C461.161 20.0614 461.934 20.0875 462.376 20.0875ZM462.402 20.1481C461.96 20.1481 461.174 20.1193 460.558 20.1193C459.941 20.1193 459.127 20.1481 458.735 20.1481H458.705V20.1193V19.9122V19.8821H458.735H458.831C459.08 19.8793 459.304 19.8574 459.309 19.5201V15.9219C459.304 15.5873 459.08 15.5653 458.831 15.5599H458.705V15.5311V15.2952H458.735C459.154 15.2952 459.865 15.3213 460.44 15.3213C461.018 15.3213 461.728 15.2952 462.194 15.2952H462.226L462.224 15.3254C462.219 15.4296 462.218 15.5503 462.218 15.6805C462.218 15.9178 462.224 16.1769 462.237 16.373L462.238 16.3977L462.216 16.4045L461.975 16.4676L461.973 16.432C461.933 15.9863 461.874 15.6627 461.168 15.6572H460.244L460.243 17.396H461.031C461.425 17.3919 461.495 17.1889 461.543 16.8187L461.546 16.7926H461.572H461.807V16.8228C461.793 17.0902 461.785 17.3576 461.785 17.6263C461.785 17.8855 461.793 18.1461 461.807 18.408V18.4313L461.782 18.4368L461.546 18.4861L461.543 18.4532C461.495 18.0336 461.492 17.8046 461.037 17.7991H460.244V19.3692C460.244 19.7861 460.604 19.7847 461.05 19.7861C461.877 19.782 462.207 19.7422 462.413 18.9702L462.42 18.9428L462.449 18.9482L462.669 19.0045L462.662 19.0333C462.575 19.398 462.491 19.76 462.43 20.1234L462.424 20.1481H462.402Z" fill="#081F2D"></path><path fill-rule="evenodd" clip-rule="evenodd" d="M464.437 17.6457H464.771C465.456 17.6457 465.826 17.3851 465.826 16.5733C465.826 15.9631 465.436 15.5709 464.826 15.5709C464.62 15.5709 464.531 15.5929 464.437 15.5997V17.6457ZM463.559 16.0523C463.559 15.5518 463.285 15.5312 463.071 15.5312H462.948V15.3242C463.169 15.3242 463.593 15.3516 464.01 15.3516C464.422 15.3516 464.75 15.3242 465.113 15.3242C465.976 15.3242 466.745 15.5587 466.745 16.5336C466.745 17.1507 466.335 17.5292 465.793 17.7431L466.964 19.4997C467.156 19.7904 467.293 19.8727 467.629 19.9111V20.1195C467.402 20.1195 467.183 20.0921 466.957 20.0921C466.745 20.0921 466.525 20.1195 466.313 20.1195C465.786 19.4243 465.332 18.6824 464.887 17.8926H464.437V19.3626C464.437 19.8932 464.683 19.9111 464.997 19.9111H465.121V20.1195C464.73 20.1195 464.334 20.0921 463.943 20.0921C463.612 20.0921 463.29 20.1195 462.948 20.1195V19.9111H463.071C463.326 19.9111 463.559 19.7959 463.559 19.5422V16.0523Z" fill="#081F2D"></path><path fill-rule="evenodd" clip-rule="evenodd" d="M464.771 17.6154C465.449 17.61 465.79 17.3741 465.798 16.5746C465.794 15.9754 465.422 15.6024 464.825 15.6011C464.639 15.6011 464.553 15.6175 464.464 15.6257V17.6154H464.771ZM464.435 17.6744H464.405V15.5708L464.431 15.5695C464.524 15.5612 464.619 15.542 464.825 15.542C465.449 15.542 465.856 15.9493 465.856 16.5746C465.854 17.3946 465.462 17.673 464.771 17.6744H464.435ZM464.435 17.8634H464.904L464.913 17.8771C465.359 18.667 465.809 19.4088 466.312 20.089C466.522 20.089 466.741 20.0616 466.956 20.0616C467.174 20.0616 467.385 20.0849 467.599 20.0876V19.9368C467.277 19.8984 467.127 19.801 466.939 19.5158L465.747 17.7277L465.78 17.714C466.317 17.5028 466.713 17.1353 466.713 16.5319C466.713 15.5789 465.974 15.3581 465.114 15.354C464.751 15.354 464.423 15.3814 464.01 15.3814C463.607 15.3814 463.202 15.3568 462.976 15.354V15.5007H463.071C463.284 15.5007 463.588 15.535 463.588 16.052V19.5419C463.588 19.8161 463.328 19.9423 463.071 19.9436H462.976V20.0876C463.308 20.0876 463.618 20.0616 463.941 20.0616C464.324 20.0616 464.71 20.0876 465.089 20.0876V19.9436H464.996C464.684 19.9423 464.405 19.9039 464.405 19.3622V17.8634H464.435ZM467.629 20.1482C467.399 20.1482 467.182 20.1208 466.956 20.1208C466.747 20.1208 466.528 20.1482 466.288 20.1359C465.764 19.4448 465.313 18.707 464.869 17.9227H464.464V19.3625C464.472 19.8781 464.68 19.874 464.996 19.8822H465.15V19.911V20.1482H465.12C464.728 20.1482 464.33 20.1208 463.941 20.1208C463.613 20.1208 463.293 20.1482 462.948 20.1482H462.918V20.1181V19.8822H462.948H463.071C463.318 19.8808 463.527 19.7725 463.528 19.5421V16.0523C463.523 15.5641 463.285 15.5668 463.071 15.56H462.918V15.5298V15.2939H462.948C463.17 15.2939 463.594 15.3214 464.01 15.3214C464.419 15.3214 464.749 15.2939 465.114 15.2939C465.978 15.2967 466.773 15.5353 466.775 16.5322C466.775 17.1534 466.366 17.5401 465.837 17.7567L466.989 19.4832C467.18 19.7684 467.299 19.8397 467.633 19.8822L467.658 19.8863V19.911V20.1482H467.629Z" fill="#081F2D"></path><path fill-rule="evenodd" clip-rule="evenodd" d="M472.281 18.7649L472.295 18.7512V16.176C472.295 15.6124 471.905 15.5301 471.698 15.5301H471.549V15.3244C471.871 15.3244 472.185 15.3519 472.507 15.3519C472.789 15.3519 473.068 15.3244 473.351 15.3244V15.5301H473.248C472.96 15.5301 472.638 15.585 472.638 16.4022V19.5287C472.638 19.7673 472.645 20.0087 472.678 20.2212H472.419L468.889 16.2788V19.1078C468.889 19.707 469.005 19.9113 469.533 19.9113H469.65V20.1184C469.356 20.1184 469.06 20.0909 468.767 20.0909C468.458 20.0909 468.143 20.1184 467.834 20.1184V19.9113H467.928C468.403 19.9113 468.547 19.5891 468.547 19.0406V16.1472C468.547 15.7632 468.232 15.5301 467.923 15.5301H467.834V15.3244C468.094 15.3244 468.362 15.3519 468.622 15.3519C468.827 15.3519 469.026 15.3244 469.231 15.3244L472.281 18.7649Z" fill="#081F2D"></path><path fill-rule="evenodd" clip-rule="evenodd" d="M472.265 18.7516V18.7489L472.259 18.7434L472.265 18.7516ZM472.281 18.7642L472.302 18.745L472.281 18.7642ZM472.418 20.1898H472.642C472.613 19.9841 472.606 19.7551 472.606 19.5275V16.4024C472.606 15.5782 472.954 15.5014 473.248 15.4987H473.319V15.3533C473.05 15.3561 472.779 15.3808 472.507 15.3808C472.192 15.3808 471.887 15.3561 471.576 15.3533V15.4987H471.698C471.909 15.5014 472.325 15.5933 472.325 16.1761L472.315 18.7719L472.301 18.7856L472.281 18.8076L469.231 15.3533C469.027 15.3533 468.829 15.3808 468.622 15.3808C468.367 15.3808 468.112 15.3561 467.863 15.3533V15.4987H467.923C468.244 15.5014 468.575 15.7455 468.575 16.1473V19.0379C468.575 19.5892 468.419 19.9402 467.928 19.943L467.863 19.9416V20.0869C468.158 20.0856 468.465 20.0609 468.764 20.0609C469.052 20.0609 469.336 20.0856 469.619 20.0869V19.943H469.533C468.993 19.9416 468.859 19.7057 468.859 19.1079V16.2022L472.418 20.1898ZM472.679 20.2505L472.396 20.2409L468.919 16.3562V19.1083C468.927 19.7062 469.016 19.8748 469.534 19.8817H469.679V19.9118V20.1477H469.649C469.352 20.1477 469.059 20.1203 468.765 20.1203C468.46 20.1203 468.142 20.1477 467.834 20.1477H467.803V20.1189V19.8817H467.834H467.929C468.382 19.8803 468.512 19.5882 468.516 19.0384V16.1477C468.516 15.7816 468.216 15.5595 467.923 15.5595H467.803V15.5307V15.2948H467.834C468.096 15.2948 468.362 15.3209 468.622 15.3209C468.823 15.3209 469.022 15.2948 469.252 15.303L472.265 18.7024V16.1765C472.262 15.6308 471.897 15.5622 471.698 15.5595H471.518V15.5307V15.2948H471.548C471.871 15.2948 472.187 15.3209 472.507 15.3209C472.786 15.3209 473.068 15.2948 473.35 15.2948H473.379V15.325V15.5595H473.35H473.249C472.965 15.5677 472.674 15.5924 472.667 16.4028V19.5279C472.667 19.7679 472.673 20.0065 472.707 20.2176L472.711 20.2505H472.679Z" fill="#081F2D"></path><path fill-rule="evenodd" clip-rule="evenodd" d="M475.453 16.0939H475.438L474.802 18.037H476.083L475.453 16.0939ZM474.454 19.1368C474.384 19.3699 474.301 19.5495 474.301 19.6716C474.301 19.8786 474.59 19.9115 474.814 19.9115H474.891V20.12C474.617 20.1049 474.337 20.0925 474.06 20.0925C473.814 20.0925 473.569 20.1049 473.321 20.12V19.9115H473.364C473.631 19.9115 473.856 19.7538 473.958 19.4645L475.055 16.3133C475.144 16.0597 475.268 15.7168 475.311 15.4618C475.528 15.3864 475.803 15.2492 475.933 15.167C475.954 15.1587 475.966 15.1519 475.988 15.1519C476.007 15.1519 476.021 15.1519 476.036 15.1738C476.055 15.2287 476.076 15.2904 476.098 15.3452L477.359 18.9379C477.44 19.1779 477.522 19.4316 477.611 19.6373C477.694 19.8306 477.838 19.9115 478.064 19.9115H478.104V20.12C477.797 20.1049 477.488 20.0925 477.159 20.0925C476.824 20.0925 476.481 20.1049 476.13 20.12V19.9115H476.207C476.364 19.9115 476.631 19.8855 476.631 19.7141C476.631 19.6249 476.57 19.4385 476.494 19.2191L476.226 18.4223H474.672L474.454 19.1368Z" fill="#081F2D"></path><path fill-rule="evenodd" clip-rule="evenodd" d="M475.423 16.1025L475.438 16.097L475.423 16.1025ZM474.842 18.0072H476.04L475.445 16.167L474.842 18.0072ZM474.76 18.0675L475.415 16.0641H475.438H475.452V16.0942L475.445 16.0956L475.452 16.0942V16.0641H475.473L476.124 18.0675H474.76ZM476.161 20.0858C476.5 20.0749 476.831 20.0611 477.159 20.0611C477.477 20.0611 477.775 20.0749 478.073 20.0858V19.9432H478.064C477.83 19.9446 477.667 19.8513 477.582 19.6498C477.493 19.4413 477.41 19.1863 477.331 18.9463L476.069 15.355C476.047 15.3001 476.026 15.237 476.009 15.189C476.003 15.1822 476.005 15.1822 475.999 15.1822H475.987C475.972 15.1822 475.965 15.1863 475.947 15.1904C475.814 15.2768 475.539 15.4125 475.337 15.466C475.294 15.7266 475.171 16.0694 475.082 16.3231L473.985 19.4756C473.881 19.7732 473.64 19.9432 473.361 19.9432H473.35V20.0858C473.585 20.0749 473.824 20.0611 474.062 20.0611C474.326 20.0611 474.597 20.0749 474.858 20.0858V19.9432H474.814C474.591 19.9405 474.279 19.9144 474.271 19.6731C474.271 19.5346 474.356 19.3591 474.423 19.1287L474.453 19.1369L474.423 19.1273L474.649 18.3923H476.247L476.52 19.2096C476.597 19.429 476.66 19.6127 476.66 19.7128C476.65 19.924 476.362 19.9391 476.206 19.9432H476.161V20.0858ZM478.102 20.1477C477.793 20.134 477.485 20.1203 477.16 20.1203C476.823 20.1203 476.481 20.134 476.132 20.1477L476.101 20.1504V20.1189V19.8817H476.131H476.206C476.365 19.8817 476.6 19.8446 476.6 19.713C476.601 19.6348 476.54 19.4456 476.466 19.2276L476.203 18.4514H474.693L474.48 19.1453C474.411 19.3798 474.327 19.5608 474.329 19.6732C474.33 19.8405 474.587 19.8817 474.814 19.8817H474.92V19.9118V20.1504L474.888 20.1477C474.615 20.134 474.334 20.1203 474.062 20.1203C473.815 20.1203 473.569 20.134 473.323 20.1477L473.29 20.1504V20.1189V19.8817H473.322H473.361C473.617 19.8803 473.831 19.7349 473.929 19.4552L475.026 16.304C475.115 16.049 475.239 15.7062 475.299 15.4333C475.514 15.3592 475.79 15.2221 475.92 15.1371C475.94 15.1316 475.96 15.122 475.987 15.122C476.003 15.122 476.04 15.1261 476.062 15.1618C476.081 15.218 476.103 15.2797 476.125 15.3359L477.387 18.9273C477.468 19.1686 477.55 19.4223 477.639 19.6252C477.718 19.809 477.844 19.8803 478.064 19.8817H478.134V19.9118V20.1504L478.102 20.1477Z" fill="#081F2D"></path><path fill-rule="evenodd" clip-rule="evenodd" d="M478.406 15.6674C477.892 15.6674 477.871 15.7908 477.769 16.2927H477.563C477.589 16.1007 477.625 15.9087 477.646 15.7085C477.673 15.5165 477.687 15.3245 477.687 15.1257H477.852C477.906 15.3314 478.078 15.3245 478.263 15.3245H481.798C481.982 15.3245 482.153 15.3177 482.168 15.112L482.332 15.1394C482.306 15.3245 482.279 15.5097 482.257 15.6962C482.243 15.8813 482.243 16.0664 482.243 16.2515L482.036 16.3283C482.026 16.0746 481.99 15.6674 481.53 15.6674H480.407V19.3218C480.407 19.8511 480.648 19.9114 480.976 19.9114H481.106V20.1199C480.838 20.1199 480.36 20.0924 479.988 20.0924C479.578 20.0924 479.099 20.1199 478.832 20.1199V19.9114H478.961C479.34 19.9114 479.53 19.8785 479.53 19.3355V15.6674H478.406Z" fill="#081F2D"></path><path fill-rule="evenodd" clip-rule="evenodd" d="M481.105 20.1477C480.837 20.1477 480.357 20.1203 479.989 20.1203C479.579 20.1203 479.099 20.1477 478.831 20.1477H478.799V20.1189V19.8817H478.831H478.961C479.339 19.8735 479.489 19.868 479.499 19.3359L479.497 15.6966H478.405V15.6664V15.6363H479.559V19.3359C479.559 19.8872 479.336 19.9407 478.961 19.942H478.858V20.0901C479.132 20.086 479.592 20.0613 479.989 20.0613C480.346 20.0613 480.804 20.086 481.076 20.0901V19.942H480.974C480.644 19.9407 480.379 19.8625 480.377 19.3208V15.6363H481.531C481.99 15.639 482.051 16.0312 482.063 16.2849L482.213 16.2314C482.213 16.0518 482.215 15.8721 482.227 15.6911C482.246 15.5156 482.272 15.3387 482.297 15.1632L482.193 15.1467C482.161 15.3469 481.968 15.3565 481.799 15.3538H478.262H478.226C478.065 15.3565 477.89 15.3469 477.827 15.1536H477.716C477.713 15.3442 477.701 15.5293 477.673 15.7117C477.656 15.9009 477.621 16.0833 477.597 16.2629H477.743C477.833 15.7844 477.894 15.6294 478.405 15.6363V15.6664V15.6966C477.898 15.7062 477.909 15.7926 477.797 16.3L477.791 16.3233H477.769H477.528L477.532 16.289C477.56 16.0943 477.595 15.9037 477.615 15.7048C477.643 15.5128 477.656 15.3222 477.656 15.1248V15.0946H477.686H477.873L477.879 15.1165C477.926 15.2907 478.051 15.2907 478.226 15.2934L478.262 15.2948H481.797C481.988 15.2907 482.124 15.288 482.137 15.1097L482.14 15.0768L482.171 15.0836L482.365 15.1138L482.361 15.144C482.332 15.3264 482.306 15.5128 482.285 15.6966C482.272 15.8803 482.272 16.0655 482.272 16.2506V16.2725L482.253 16.2808L482.01 16.3685L482.008 16.3287C481.99 16.0709 481.963 15.6966 481.531 15.6966H480.436V19.3208C480.444 19.8392 480.648 19.8748 480.974 19.8817H481.134V19.9119V20.1477H481.105Z" fill="#081F2D"></path><path fill-rule="evenodd" clip-rule="evenodd" d="M482.584 19.9111H482.68C482.927 19.9111 483.186 19.8782 483.186 19.5203V15.9221C483.186 15.5642 482.927 15.5299 482.68 15.5299H482.584V15.3242C482.851 15.3242 483.261 15.3517 483.597 15.3517C483.941 15.3517 484.352 15.3242 484.673 15.3242V15.5299H484.578C484.331 15.5299 484.07 15.5642 484.07 15.9221V19.5203C484.07 19.8782 484.331 19.9111 484.578 19.9111H484.673V20.1182C484.345 20.1182 483.933 20.0908 483.591 20.0908C483.254 20.0908 482.851 20.1182 482.584 20.1182V19.9111Z" fill="#081F2D"></path><path fill-rule="evenodd" clip-rule="evenodd" d="M484.643 20.0875V19.9421H484.579C484.333 19.9421 484.043 19.8996 484.043 19.5198V15.9216C484.043 15.5431 484.333 15.5006 484.579 15.5006H484.643V15.3539C484.329 15.3566 483.93 15.3813 483.597 15.3813C483.272 15.3813 482.88 15.3566 482.616 15.3539V15.5006H482.68C482.923 15.5006 483.216 15.5431 483.216 15.9216V19.5198C483.216 19.8996 482.923 19.9421 482.68 19.9421H482.616V20.0875C482.878 20.0847 483.265 20.0614 483.591 20.0614C483.925 20.0614 484.322 20.0861 484.643 20.0875ZM484.674 20.1481C484.344 20.1481 483.934 20.1193 483.591 20.1193C483.256 20.1193 482.851 20.1481 482.584 20.1481H482.556V20.1193V19.9122V19.8821H482.584H482.68C482.928 19.8793 483.155 19.8574 483.156 19.5201V15.9219C483.155 15.5873 482.928 15.5653 482.68 15.5599H482.556V15.5311V15.2952H482.584C482.851 15.2952 483.263 15.3213 483.597 15.3213C483.939 15.3213 484.351 15.2952 484.674 15.2952H484.704V15.324V15.5599H484.674H484.579C484.329 15.5653 484.103 15.5873 484.1 15.9219V19.5201C484.103 19.8574 484.329 19.8793 484.579 19.8821H484.704V19.9122V20.1481H484.674Z" fill="#081F2D"></path><path fill-rule="evenodd" clip-rule="evenodd" d="M487.511 19.9198C488.841 19.9198 489.072 18.7446 489.072 17.7436C489.072 16.7385 488.532 15.5235 487.394 15.5235C486.195 15.5235 485.839 16.5959 485.839 17.5146C485.839 18.7446 486.4 19.9198 487.511 19.9198ZM487.407 15.2216C488.867 15.2216 490.033 16.1294 490.033 17.5912C490.033 19.1722 488.903 20.2212 487.443 20.2212C485.99 20.2212 484.88 19.2326 484.88 17.7557C484.88 16.3282 485.983 15.2216 487.407 15.2216Z" fill="#081F2D"></path><path fill-rule="evenodd" clip-rule="evenodd" d="M485.809 17.5143C485.811 16.5901 486.171 15.4917 487.395 15.4917C488.558 15.4958 489.101 16.7341 489.102 17.7433C489.101 18.743 488.866 19.9469 487.511 19.9469V19.9195V19.8894C488.814 19.888 489.039 18.743 489.042 17.7433C489.042 16.7464 488.508 15.5548 487.395 15.5534C486.219 15.5548 485.87 16.5997 485.869 17.5143C485.869 18.7375 486.426 19.8866 487.511 19.8894V19.9195V19.9469C486.374 19.9456 485.811 18.7512 485.809 17.5143ZM484.85 17.7558C484.852 16.3119 485.968 15.1943 487.407 15.1916V15.2217V15.2505C485.999 15.2505 484.908 16.3434 484.907 17.7558C484.911 19.2162 486.004 20.1898 487.443 20.1912C488.887 20.1898 490.001 19.1545 490.004 17.5899C490.001 16.146 488.856 15.2533 487.407 15.2505V15.2217V15.1916C488.879 15.1929 490.059 16.1089 490.062 17.5899C490.06 19.1874 488.916 20.2474 487.443 20.2515C485.977 20.2474 484.852 19.2491 484.85 17.7558Z" fill="#081F2D"></path><path fill-rule="evenodd" clip-rule="evenodd" d="M494.651 18.7649L494.664 18.7512V16.176C494.664 15.6124 494.273 15.5301 494.066 15.5301H493.919V15.3244C494.239 15.3244 494.555 15.3519 494.875 15.3519C495.157 15.3519 495.437 15.3244 495.719 15.3244V15.5301H495.615C495.329 15.5301 495.006 15.585 495.006 16.4022V19.5287C495.006 19.7673 495.013 20.0087 495.047 20.2212H494.789L491.258 16.2788V19.1078C491.258 19.707 491.373 19.9113 491.902 19.9113H492.018V20.1184C491.724 20.1184 491.43 20.0909 491.135 20.0909C490.826 20.0909 490.511 20.1184 490.202 20.1184V19.9113H490.298C490.773 19.9113 490.915 19.5891 490.915 19.0406V16.1472C490.915 15.7632 490.6 15.5301 490.291 15.5301H490.202V15.3244C490.462 15.3244 490.73 15.3519 490.99 15.3519C491.197 15.3519 491.394 15.3244 491.601 15.3244L494.651 18.7649Z" fill="#081F2D"></path><path fill-rule="evenodd" clip-rule="evenodd" d="M494.634 18.7516V18.7489L494.628 18.7434L494.634 18.7516ZM494.651 18.7642L494.672 18.745L494.651 18.7642ZM494.788 20.1898H495.012C494.982 19.9841 494.977 19.7551 494.977 19.5275V16.4024C494.977 15.5769 495.323 15.5014 495.617 15.4987H495.69V15.3533C495.42 15.3561 495.149 15.3808 494.875 15.3808C494.563 15.3808 494.257 15.3561 493.946 15.3533V15.4987H494.067C494.279 15.5014 494.692 15.5961 494.692 16.1761L494.685 18.7719L494.672 18.7856L494.651 18.8076L491.6 15.3533C491.399 15.3533 491.197 15.3808 490.991 15.3808C490.738 15.3808 490.482 15.3561 490.231 15.3533V15.4987H490.292C490.613 15.5014 490.946 15.7455 490.946 16.1473V19.0407C490.946 19.5892 490.791 19.9402 490.298 19.943L490.231 19.9416V20.0869C490.528 20.0856 490.835 20.0609 491.134 20.0609C491.42 20.0609 491.704 20.0856 491.988 20.0869V19.943H491.901C491.363 19.9416 491.229 19.7057 491.229 19.1079V16.2008L494.788 20.1898ZM495.05 20.2505L494.765 20.2409L491.288 16.3562V19.1083C491.296 19.7062 491.387 19.8748 491.901 19.8817H492.049V19.9118V20.1477H492.02C491.722 20.1477 491.428 20.1203 491.135 20.1203C490.828 20.1203 490.514 20.1477 490.203 20.1477H490.173V20.1189V19.8817H490.203H490.299C490.75 19.8803 490.88 19.5882 490.887 19.0411V16.1477C490.886 15.7816 490.586 15.5595 490.292 15.5595H490.173V15.5307V15.2948H490.203C490.464 15.2948 490.731 15.3209 490.991 15.3209C491.194 15.3209 491.392 15.2948 491.623 15.3044L494.634 18.7024V16.1765C494.632 15.6308 494.267 15.5649 494.067 15.5595H493.886V15.5307V15.2948H493.918C494.241 15.2948 494.556 15.3209 494.876 15.3209C495.156 15.3209 495.435 15.2948 495.72 15.2948H495.749V15.3236V15.5595H495.72H495.616C495.334 15.5677 495.043 15.5937 495.037 16.4028V19.5279C495.037 19.7679 495.043 20.0078 495.076 20.2176L495.081 20.2505H495.05Z" fill="#081F2D"></path><path fill-rule="evenodd" clip-rule="evenodd" d="M497.823 16.0939H497.808L497.171 18.037H498.454L497.823 16.0939ZM496.822 19.1368C496.755 19.3699 496.671 19.5495 496.671 19.6716C496.671 19.8786 496.96 19.9115 497.184 19.9115H497.261V20.12C496.987 20.1049 496.705 20.0925 496.43 20.0925C496.184 20.0925 495.938 20.1049 495.691 20.12V19.9115H495.731C495.999 19.9115 496.226 19.7538 496.328 19.4645L497.425 16.3133C497.514 16.0597 497.637 15.7168 497.678 15.4618C497.898 15.3864 498.171 15.2492 498.304 15.167C498.321 15.1587 498.336 15.1519 498.357 15.1519C498.377 15.1519 498.39 15.1519 498.405 15.1738C498.424 15.2287 498.446 15.2904 498.468 15.3452L499.728 18.9379C499.809 19.1779 499.891 19.4316 499.981 19.6373C500.063 19.8306 500.208 19.9115 500.433 19.9115H500.475V20.12C500.166 20.1049 499.857 20.0925 499.528 20.0925C499.193 20.0925 498.851 20.1049 498.501 20.12V19.9115H498.577C498.733 19.9115 499.001 19.8855 499.001 19.7141C499.001 19.6249 498.938 19.4385 498.863 19.2191L498.596 18.4223H497.042L496.822 19.1368Z" fill="#081F2D"></path><path fill-rule="evenodd" clip-rule="evenodd" d="M497.794 16.1023L497.809 16.0968L497.794 16.1023ZM497.212 18.007H498.411L497.816 16.1682L497.212 18.007ZM497.13 18.066L497.787 16.064H497.809H497.823V16.0941L497.816 16.0955L497.823 16.0941V16.064H497.845L498.492 18.066H497.13ZM498.53 20.0868C498.868 20.0745 499.202 20.0608 499.529 20.0608C499.847 20.0608 500.146 20.0745 500.445 20.0855L500.444 19.9428H500.432C500.2 19.9428 500.039 19.851 499.953 19.6494C499.863 19.441 499.78 19.1859 499.7 18.9459L498.438 15.3546C498.418 15.2997 498.396 15.2367 498.381 15.19C498.375 15.1818 498.375 15.1818 498.37 15.1818H498.356C498.342 15.1818 498.335 15.1873 498.319 15.1914C498.185 15.2751 497.91 15.4122 497.707 15.4657C497.665 15.7262 497.539 16.0676 497.452 16.3227L496.354 19.4752C496.25 19.7728 496.011 19.9428 495.73 19.9428H495.721V20.0855C495.956 20.0745 496.193 20.0608 496.431 20.0608C496.696 20.0608 496.967 20.0745 497.231 20.0855V19.9428H497.185C496.962 19.9401 496.648 19.9154 496.64 19.6713C496.641 19.5342 496.728 19.3601 496.793 19.1283L496.821 19.1365L496.793 19.1269L497.019 18.3919H498.617L498.891 19.2078C498.966 19.43 499.029 19.6124 499.029 19.7125C499.02 19.9236 498.732 19.9387 498.575 19.9428H498.53V20.0868ZM500.472 20.1475C500.163 20.1351 499.856 20.12 499.529 20.12C499.194 20.12 498.85 20.1351 498.501 20.1475L498.471 20.1502V20.1187V19.8814H498.501H498.575C498.734 19.8814 498.971 19.8444 498.971 19.7128C498.972 19.6346 498.91 19.4481 498.835 19.2273L498.574 18.4512H497.062L496.85 19.1451C496.781 19.3809 496.699 19.5606 496.701 19.6716C496.701 19.8403 496.958 19.8814 497.185 19.8814H497.289V19.9116V20.1502L497.258 20.1475C496.984 20.1351 496.703 20.12 496.431 20.12C496.185 20.12 495.94 20.1351 495.692 20.1475L495.662 20.1502V20.1187V19.8814H495.692H495.731C495.988 19.8814 496.201 19.7333 496.3 19.455L497.397 16.3024C497.483 16.0487 497.608 15.7059 497.668 15.433C497.884 15.359 498.159 15.2219 498.292 15.1369C498.31 15.1314 498.329 15.1231 498.356 15.1231C498.375 15.1218 498.41 15.1259 498.433 15.1629C498.452 15.2164 498.473 15.2795 498.496 15.3343L499.756 18.927C499.837 19.1684 499.92 19.4221 500.008 19.6264C500.089 19.8088 500.215 19.8801 500.432 19.8814H500.503V19.9116V20.1502L500.472 20.1475Z" fill="#081F2D"></path><path fill-rule="evenodd" clip-rule="evenodd" d="M502.202 19.4455C502.202 19.7197 502.392 19.802 502.611 19.8308C502.891 19.8514 503.199 19.8514 503.517 19.8171C503.804 19.7814 504.052 19.6169 504.172 19.4455C504.283 19.2946 504.343 19.1013 504.385 18.9505H504.584C504.51 19.3426 504.413 19.728 504.331 20.1188C503.729 20.1188 503.125 20.0913 502.522 20.0913C501.918 20.0913 501.316 20.1188 500.713 20.1188V19.9117H500.807C501.055 19.9117 501.323 19.8774 501.323 19.4523V15.9227C501.323 15.5648 501.055 15.5305 500.807 15.5305H500.713V15.3248C501.075 15.3248 501.433 15.3523 501.795 15.3523C502.146 15.3523 502.488 15.3248 502.838 15.3248V15.5305H502.665C502.404 15.5305 502.202 15.5374 502.202 15.9008V19.4455Z" fill="#081F2D"></path><path fill-rule="evenodd" clip-rule="evenodd" d="M504.307 20.0875C504.386 19.7159 504.475 19.3511 504.549 18.9795H504.408C504.365 19.129 504.304 19.3141 504.197 19.4635C504.068 19.6418 503.815 19.8091 503.518 19.8461C503.339 19.864 503.161 19.8736 502.993 19.8736C502.859 19.8736 502.732 19.8681 502.607 19.8585C502.385 19.8338 502.169 19.7392 502.169 19.4457V15.901C502.169 15.5198 502.41 15.5006 502.666 15.5006H502.807V15.3539C502.469 15.3566 502.136 15.3813 501.796 15.3813C501.44 15.3813 501.094 15.3566 500.742 15.3539V15.5006H500.808C501.053 15.5006 501.352 15.5431 501.352 15.9202V19.4526C501.352 19.8969 501.054 19.9421 500.808 19.9421H500.742V20.0875C501.335 20.0875 501.927 20.0614 502.522 20.0614C503.119 20.0614 503.713 20.0875 504.307 20.0875ZM504.332 20.1481C503.727 20.1481 503.125 20.1207 502.523 20.1207C501.919 20.1207 501.316 20.1481 500.712 20.1481H500.684V20.1179V19.8821H500.712H500.808C501.057 19.8766 501.291 19.8588 501.294 19.4529V15.9205C501.291 15.5873 501.059 15.5653 500.808 15.5599H500.684V15.5311V15.2952H500.712C501.078 15.2952 501.433 15.3213 501.796 15.3213C502.144 15.3213 502.486 15.2952 502.839 15.2952H502.866V15.324V15.5599H502.839H502.666C502.399 15.5681 502.235 15.5544 502.23 15.9013V19.446C502.231 19.7011 502.398 19.771 502.613 19.8012C502.735 19.8094 502.861 19.8149 502.993 19.8149C503.16 19.8149 503.335 19.8067 503.512 19.7875C503.791 19.7545 504.032 19.5927 504.15 19.4296C504.255 19.2828 504.316 19.0936 504.356 18.9441L504.363 18.9208H504.386H504.62L504.615 18.9565C504.537 19.35 504.444 19.734 504.36 20.1248L504.355 20.1481H504.332Z" fill="#081F2D"></path><path fill-rule="evenodd" clip-rule="evenodd" d="M504.385 15.8545H504.47C504.563 15.8545 504.607 15.7832 504.607 15.6694C504.607 15.5542 504.538 15.5144 504.466 15.5144H504.385V15.8545ZM504.141 16.2357V16.2C504.23 16.1877 504.245 16.1904 504.245 16.1356V15.5994C504.245 15.5254 504.239 15.4993 504.144 15.5034V15.4664H504.515C504.641 15.4664 504.757 15.5267 504.757 15.6584C504.757 15.7653 504.687 15.8449 504.586 15.8764L504.705 16.0423C504.761 16.1164 504.823 16.1877 504.865 16.2124V16.2357H504.724C504.656 16.2357 504.597 16.0931 504.466 15.9025H504.385V16.1424C504.385 16.1904 504.401 16.1877 504.49 16.2V16.2357H504.141ZM504.503 16.4424C504.824 16.4424 505.073 16.1654 505.073 15.8555C505.073 15.5442 504.828 15.2658 504.503 15.2658C504.178 15.2658 503.929 15.5442 503.929 15.8555C503.929 16.1654 504.178 16.4424 504.503 16.4424ZM504.501 15.129C504.915 15.129 505.222 15.4471 505.222 15.8544C505.222 16.2603 504.915 16.5757 504.501 16.5757C504.088 16.5757 503.78 16.2603 503.78 15.8544C503.779 15.4471 504.088 15.129 504.501 15.129Z" fill="#081F2D"></path><path fill-rule="evenodd" clip-rule="evenodd" d="M448.103 11.0832C448.103 12.0554 448.796 12.1692 449.414 12.1692C452.134 12.1692 453.027 10.111 453.027 8.22958C453.027 5.86964 451.515 4.16653 449.087 4.16653C448.569 4.16653 448.331 4.20355 448.103 4.21726V11.0832ZM446.869 5.16327C446.869 4.02649 446.277 4.10191 445.711 4.08957V3.76184C446.202 3.78515 446.706 3.78515 447.197 3.78515C447.726 3.78515 448.443 3.76184 449.377 3.76184C452.636 3.76184 454.412 5.94352 454.412 8.18005C454.412 9.42927 453.683 12.5722 449.225 12.5722C448.583 12.5722 447.991 12.5475 447.398 12.5475C446.832 12.5475 446.277 12.5599 445.711 12.5722V12.2445C446.466 12.1691 446.832 12.143 446.869 11.2846V5.16327Z" fill="#081F2D"></path><path fill-rule="evenodd" clip-rule="evenodd" d="M456.202 4.86041C455.875 4.86041 455.585 4.55736 455.585 4.22963C455.585 3.91287 455.888 3.62216 456.202 3.62216C456.527 3.62216 456.819 3.88819 456.819 4.22963C456.819 4.57108 456.541 4.86041 456.202 4.86041ZM454.855 12.2446H455.092C455.445 12.2446 455.698 12.2446 455.698 11.8277V8.4064C455.698 7.85241 455.51 7.77425 455.043 7.52468V7.32173C455.634 7.14347 456.341 6.90624 456.391 6.86785C456.478 6.81711 456.555 6.8034 456.618 6.8034C456.679 6.8034 456.705 6.88019 456.705 6.98166V11.8277C456.705 12.2446 456.982 12.2446 457.335 12.2446H457.548V12.5737C457.12 12.5737 456.679 12.5476 456.228 12.5476C455.775 12.5476 455.319 12.56 454.855 12.5737V12.2446Z" fill="#081F2D"></path><path fill-rule="evenodd" clip-rule="evenodd" d="M458.746 8.48229C458.746 8.01606 458.605 7.8899 458.015 7.64993V7.41133C458.555 7.23444 459.071 7.06989 459.677 6.80386C459.714 6.80386 459.751 6.82992 459.751 6.93002V7.75141C460.471 7.23444 461.088 6.80386 461.932 6.80386C463.001 6.80386 463.38 7.58686 463.38 8.57142V11.8268C463.38 12.245 463.656 12.245 464.01 12.245H464.237V12.5728C463.793 12.5728 463.354 12.5481 462.901 12.5481C462.447 12.5481 461.994 12.5604 461.541 12.5728V12.245H461.767C462.121 12.245 462.37 12.245 462.37 11.8268V8.55908C462.37 7.83917 461.932 7.48538 461.214 7.48538C460.812 7.48538 460.169 7.81449 459.751 8.09148V11.8268C459.751 12.245 460.029 12.245 460.382 12.245H460.609V12.5728C460.169 12.5728 459.728 12.5481 459.274 12.5481C458.821 12.5481 458.367 12.5604 457.915 12.5728V12.245H458.142C458.492 12.245 458.746 12.245 458.746 11.8268V8.48229Z" fill="#081F2D"></path><path fill-rule="evenodd" clip-rule="evenodd" d="M467.423 8.68514C467.736 8.68514 467.775 8.52059 467.775 8.36975C467.775 7.72526 467.385 7.20829 466.679 7.20829C465.911 7.20829 465.383 7.77462 465.231 8.68514H467.423ZM465.193 9.08821C465.168 9.20339 465.168 9.39263 465.193 9.82183C465.268 11.0203 466.037 12.0049 467.044 12.0049C467.736 12.0049 468.28 11.6264 468.745 11.1588L468.921 11.3371C468.341 12.1064 467.623 12.7618 466.592 12.7618C464.589 12.7618 464.186 10.8174 464.186 10.0111C464.186 7.53594 465.848 6.80368 466.728 6.80368C467.749 6.80368 468.846 7.4468 468.858 8.78516C468.858 8.86195 468.858 8.93737 468.846 9.01279L468.731 9.08821H465.193Z" fill="#081F2D"></path><path fill-rule="evenodd" clip-rule="evenodd" d="M469.148 12.245H469.488C469.839 12.245 470.091 12.245 470.091 11.8268V8.28068C470.091 7.88987 469.627 7.81445 469.437 7.71298V7.52375C470.357 7.13157 470.86 6.80383 470.975 6.80383C471.05 6.80383 471.086 6.84223 471.086 6.96838V8.10379H471.113C471.427 7.61288 471.958 6.80383 472.724 6.80383C473.04 6.80383 473.442 7.01775 473.442 7.47301C473.442 7.81445 473.204 8.1175 472.851 8.1175C472.458 8.1175 472.458 7.81445 472.019 7.81445C471.804 7.81445 471.1 8.10379 471.1 8.8621V11.8268C471.1 12.245 471.35 12.245 471.704 12.245H472.409V12.5727C471.717 12.5604 471.189 12.5481 470.647 12.5481C470.131 12.5481 469.601 12.5604 469.148 12.5727V12.245Z" fill="#081F2D"></path><path fill-rule="evenodd" clip-rule="evenodd" d="M473.997 10.8175C474.161 11.6512 474.663 12.3588 475.584 12.3588C476.326 12.3588 476.602 11.9036 476.602 11.462C476.602 9.97282 473.857 10.4514 473.857 8.41918C473.857 7.71298 474.425 6.80383 475.81 6.80383C476.212 6.80383 476.754 6.91765 477.245 7.17133L477.333 8.45758H477.044C476.918 7.66224 476.477 7.20836 475.671 7.20836C475.167 7.20836 474.689 7.49906 474.689 8.04071C474.689 9.51893 477.61 9.06368 477.61 11.0452C477.61 11.8775 476.943 12.762 475.444 12.762C474.939 12.762 474.35 12.5851 473.909 12.3328L473.77 10.882L473.997 10.8175Z" fill="#081F2D"></path><path fill-rule="evenodd" clip-rule="evenodd" d="M488.982 6.04676H488.667C488.428 4.56991 487.382 3.97615 485.973 3.97615C484.523 3.97615 482.419 4.94837 482.419 7.9775C482.419 10.528 484.234 12.3587 486.173 12.3587C487.419 12.3587 488.452 11.5003 488.705 10.1743L488.994 10.2497L488.705 12.0927C488.176 12.4204 486.753 12.7618 485.921 12.7618C482.975 12.7618 481.111 10.8558 481.111 8.01589C481.111 5.42832 483.417 3.57162 485.884 3.57162C486.903 3.57162 487.886 3.9021 488.856 4.24217L488.982 6.04676Z" fill="#081F2D"></path><path fill-rule="evenodd" clip-rule="evenodd" d="M489.437 12.2451H489.675C490.028 12.2451 490.28 12.2451 490.28 11.8269V4.79777C490.28 3.97639 490.092 3.9517 489.612 3.81321V3.61163C490.116 3.44708 490.645 3.21945 490.909 3.06724C491.047 2.99182 491.149 2.92874 491.186 2.92874C491.264 2.92874 491.288 3.00416 491.288 3.10563V11.8269C491.288 12.2451 491.565 12.2451 491.918 12.2451H492.131V12.5728C491.703 12.5728 491.264 12.5482 490.809 12.5482C490.356 12.5482 489.904 12.5605 489.436 12.5728V12.2451H489.437Z" fill="#081F2D"></path><path fill-rule="evenodd" clip-rule="evenodd" d="M497.523 11.8775C497.523 12.1065 497.661 12.1188 497.874 12.1188C498.025 12.1188 498.214 12.1065 498.378 12.1065V12.3711C497.836 12.4219 496.804 12.6865 496.565 12.762L496.5 12.7236V11.7033C495.747 12.3204 495.165 12.762 494.271 12.762C493.591 12.762 492.885 12.3204 492.885 11.2604V8.02835C492.885 7.70061 492.836 7.38522 492.133 7.32215V7.08217C492.586 7.06983 493.591 6.99304 493.756 6.99304C493.895 6.99304 493.895 7.08217 493.895 7.35917V10.6159C493.895 10.9944 493.895 12.0804 494.99 12.0804C495.418 12.0804 495.985 11.7527 496.514 11.3112V7.91453C496.514 7.66222 495.909 7.52372 495.456 7.39756V7.16994C496.588 7.09452 497.295 6.99304 497.42 6.99304C497.523 6.99304 497.523 7.08217 497.523 7.22067V11.8775Z" fill="#081F2D"></path><path fill-rule="evenodd" clip-rule="evenodd" d="M500.028 11.1454C500.028 11.6253 500.481 12.4344 501.324 12.4344C502.673 12.4344 503.239 11.1084 503.239 9.98392C503.239 8.62088 502.207 7.48548 501.224 7.48548C500.757 7.48548 500.367 7.78853 500.028 8.07924V11.1454ZM500.028 7.71314C500.531 7.28394 501.21 6.80262 501.904 6.80262C503.365 6.80262 504.246 8.07927 504.246 9.45465C504.246 11.1084 503.037 12.7621 501.236 12.7621C500.304 12.7621 499.814 12.4591 499.486 12.3206L499.108 12.6099L498.846 12.4714C498.956 11.7268 499.021 10.9946 499.021 10.2253V4.79783C499.021 3.97645 498.83 3.95039 498.352 3.8119V3.61032C498.858 3.44714 499.385 3.21951 499.65 3.0673C499.788 2.99188 499.888 2.9288 499.928 2.9288C500.002 2.9288 500.028 3.00422 500.028 3.1057V7.71314Z" fill="#081F2D"></path><path fill-rule="evenodd" clip-rule="evenodd" d="M445.697 19.9111H445.793C446.039 19.9111 446.299 19.8782 446.299 19.5203V15.9221C446.299 15.5642 446.039 15.5299 445.793 15.5299H445.697V15.3242C445.964 15.3242 446.375 15.3517 446.711 15.3517C447.053 15.3517 447.465 15.3242 447.787 15.3242V15.5299H447.691C447.445 15.5299 447.185 15.5642 447.185 15.9221V19.5203C447.185 19.8782 447.445 19.9111 447.691 19.9111H447.787V20.1182C447.458 20.1182 447.045 20.0908 446.704 20.0908C446.368 20.0908 445.964 20.1182 445.697 20.1182V19.9111Z" fill="#081F2D"></path><path fill-rule="evenodd" clip-rule="evenodd" d="M447.757 20.0893V19.9425H447.69C447.445 19.9425 447.155 19.9 447.154 19.5202V15.922C447.155 15.5435 447.445 15.4996 447.69 15.4996H447.757V15.3543C447.441 15.3543 447.044 15.3803 446.71 15.3803C446.386 15.3803 445.992 15.3556 445.727 15.3543V15.4996H445.791C446.036 15.4996 446.329 15.5435 446.329 15.922V19.5202C446.329 19.9 446.036 19.9425 445.791 19.9425H445.727V20.0893C445.992 20.0865 446.379 20.0605 446.704 20.0605C447.037 20.0605 447.434 20.0879 447.757 20.0893ZM447.786 20.1471C447.455 20.1471 447.044 20.1197 446.704 20.1197C446.369 20.1197 445.965 20.1471 445.697 20.1471H445.668V20.1183V19.9126V19.8825H445.697H445.792C446.04 19.877 446.267 19.8564 446.27 19.5205V15.9223C446.267 15.5863 446.042 15.5644 445.792 15.5589H445.668V15.5301V15.2942H445.697C445.965 15.2942 446.377 15.3203 446.711 15.3203C447.053 15.3203 447.462 15.2942 447.786 15.2942H447.818V15.3258V15.5589H447.786H447.69C447.443 15.5644 447.216 15.5863 447.214 15.9223V19.5205C447.216 19.8564 447.443 19.877 447.69 19.8825H447.818V19.9126V20.1471H447.786Z" fill="#081F2D"></path><path fill-rule="evenodd" clip-rule="evenodd" d="M452.494 18.7649L452.508 18.7512V16.176C452.508 15.6124 452.118 15.5301 451.911 15.5301H451.761V15.3244C452.082 15.3244 452.399 15.3519 452.72 15.3519C453.001 15.3519 453.282 15.3244 453.563 15.3244V15.5301H453.46C453.172 15.5301 452.85 15.585 452.85 16.4022V19.5287C452.85 19.7673 452.858 20.0087 452.891 20.2212H452.631L449.102 16.2788V19.1078C449.102 19.707 449.217 19.9113 449.745 19.9113H449.862V20.1184C449.567 20.1184 449.273 20.0909 448.979 20.0909C448.671 20.0909 448.357 20.1184 448.046 20.1184V19.9113H448.142C448.615 19.9113 448.76 19.5891 448.76 19.0406V16.1472C448.76 15.7632 448.443 15.5301 448.135 15.5301H448.046V15.3244C448.306 15.3244 448.574 15.3519 448.834 15.3519C449.041 15.3519 449.239 15.3244 449.444 15.3244L452.494 18.7649Z" fill="#081F2D"></path><path fill-rule="evenodd" clip-rule="evenodd" d="M452.479 18.751V18.7496L452.474 18.7441L452.479 18.751ZM452.496 18.7647L452.516 18.7441L452.496 18.7647ZM452.631 20.1904H452.858C452.826 19.9834 452.821 19.7557 452.821 19.5267V16.4016C452.821 15.5775 453.166 15.4993 453.461 15.4993H453.534V15.354C453.263 15.3553 452.993 15.38 452.721 15.38C452.406 15.38 452.103 15.3553 451.792 15.354L451.791 15.4993H451.912C452.122 15.4993 452.539 15.5939 452.539 16.1767L452.528 18.7712L452.515 18.7862L452.493 18.8082L449.444 15.354C449.241 15.354 449.042 15.38 448.834 15.38C448.582 15.38 448.326 15.3553 448.077 15.354L448.076 15.4993H448.136C448.459 15.4993 448.789 15.7462 448.789 16.1479V19.0399C448.789 19.5884 448.635 19.9409 448.143 19.9422L448.077 19.9409V20.0889C448.374 20.0862 448.679 20.0615 448.979 20.0615C449.265 20.0615 449.549 20.0862 449.833 20.0889V19.9422H449.746C449.206 19.9409 449.073 19.705 449.073 19.1085V16.2014L452.631 20.1904ZM452.892 20.251L452.609 20.2401L449.132 16.3553V19.1088C449.14 19.7053 449.231 19.8753 449.747 19.8822H449.893V19.911V20.1482H449.863C449.566 20.1482 449.27 20.1208 448.979 20.1208C448.672 20.1208 448.356 20.1482 448.047 20.1482H448.017V20.118V19.8822H448.047H448.143C448.596 19.8794 448.726 19.5873 448.731 19.0402V16.1482C448.73 15.7821 448.43 15.5599 448.136 15.5599H448.016V15.5284V15.2939H448.047C448.308 15.2939 448.577 15.3213 448.834 15.3213C449.038 15.3213 449.236 15.2939 449.467 15.3049L452.479 18.7029V16.177C452.475 15.6299 452.111 15.5641 451.913 15.5599H451.731V15.5284V15.2939H451.762C452.085 15.2939 452.4 15.3213 452.721 15.3213C452.999 15.3213 453.281 15.2939 453.563 15.2939H453.593V15.3241V15.5586H453.563H453.462C453.178 15.5682 452.888 15.5929 452.88 16.4019V19.527C452.88 19.767 452.887 20.0083 452.92 20.2154L452.927 20.251H452.892Z" fill="#081F2D"></path><path fill-rule="evenodd" clip-rule="evenodd" d="M454.59 15.6674C454.075 15.6674 454.055 15.7908 453.952 16.2927H453.747C453.773 16.1007 453.809 15.9087 453.829 15.7085C453.857 15.5165 453.87 15.3245 453.87 15.1257H454.036C454.091 15.3314 454.262 15.3245 454.448 15.3245H457.982C458.167 15.3245 458.338 15.3177 458.353 15.112L458.516 15.1394C458.49 15.3245 458.462 15.5097 458.44 15.6962C458.429 15.8813 458.429 16.0664 458.429 16.2515L458.221 16.3283C458.209 16.0746 458.174 15.6674 457.715 15.6674H456.592V19.3218C456.592 19.8511 456.831 19.9114 457.16 19.9114H457.291V20.1199C457.023 20.1199 456.543 20.0924 456.173 20.0924C455.761 20.0924 455.282 20.1199 455.015 20.1199V19.9114H455.144C455.523 19.9114 455.713 19.8785 455.713 19.3355V15.6674H454.59Z" fill="#081F2D"></path><path fill-rule="evenodd" clip-rule="evenodd" d="M457.291 20.1477C457.021 20.1477 456.542 20.1203 456.174 20.1203C455.764 20.1203 455.283 20.1477 455.015 20.1477H454.985V20.1189V19.8817H455.015H455.145C455.523 19.8735 455.675 19.868 455.683 19.3359V15.6966H454.59V15.6664V15.6363H455.743V19.3359C455.743 19.8872 455.521 19.942 455.145 19.9434H455.044V20.0874C455.315 20.086 455.776 20.0613 456.174 20.0613C456.53 20.0613 456.988 20.086 457.261 20.0874V19.9434H457.159C456.828 19.942 456.563 19.8611 456.563 19.3208V15.6363H457.716C458.175 15.639 458.235 16.0312 458.25 16.2849L458.399 16.2314C458.399 16.0518 458.4 15.8721 458.411 15.6911C458.432 15.5142 458.458 15.3387 458.482 15.1632L458.378 15.1467C458.346 15.3469 458.154 15.3565 457.982 15.3538H454.447H454.412C454.25 15.3538 454.074 15.3469 454.012 15.1549H453.899C453.899 15.3456 453.886 15.5293 453.859 15.7117C453.84 15.9009 453.808 16.0819 453.784 16.2629H453.929C454.019 15.7844 454.078 15.6294 454.59 15.6363V15.6664V15.6966C454.083 15.7062 454.093 15.7926 453.982 16.3L453.977 16.3233H453.953H453.714L453.717 16.2876C453.744 16.0943 453.78 15.9037 453.799 15.7035C453.829 15.5128 453.841 15.3222 453.841 15.1248V15.0946H453.87H454.059L454.064 15.1165C454.111 15.2907 454.238 15.2907 454.412 15.2934H454.447H457.982C458.173 15.2907 458.311 15.288 458.322 15.1083L458.326 15.0768L458.357 15.0823L458.549 15.1138L458.545 15.144C458.518 15.3264 458.491 15.5128 458.47 15.6966C458.458 15.8803 458.458 16.0655 458.458 16.2506V16.2725L458.439 16.2808L458.195 16.3685L458.194 16.3287C458.175 16.0709 458.149 15.6966 457.716 15.6966H456.622V19.3208C456.628 19.8392 456.834 19.8748 457.159 19.8817H457.319V19.9119V20.1477H457.291Z" fill="#081F2D"></path><path fill-rule="evenodd" clip-rule="evenodd" d="M458.735 19.9111H458.831C459.079 19.9111 459.339 19.8782 459.339 19.5203V15.9221C459.339 15.5642 459.079 15.5299 458.831 15.5299H458.735V15.3242C459.153 15.3242 459.866 15.3517 460.44 15.3517C461.018 15.3517 461.729 15.3242 462.194 15.3242C462.184 15.6191 462.189 16.073 462.21 16.3746L462.004 16.4295C461.97 15.9838 461.889 15.6273 461.168 15.6273H460.217V17.4264H461.031C461.443 17.4264 461.532 17.1933 461.572 16.8217H461.778C461.765 17.0891 461.757 17.3578 461.757 17.6252C461.757 17.8858 461.765 18.1463 461.778 18.4082L461.572 18.4494C461.532 18.0366 461.51 17.7692 461.038 17.7692H460.217V19.3681C460.217 19.8165 460.613 19.8165 461.051 19.8165C461.874 19.8165 462.237 19.7603 462.442 18.9787L462.635 19.0253C462.545 19.39 462.464 19.7534 462.402 20.1182C461.962 20.1182 461.174 20.0908 460.559 20.0908C459.941 20.0908 459.125 20.1182 458.735 20.1182V19.9111Z" fill="#081F2D"></path><path fill-rule="evenodd" clip-rule="evenodd" d="M462.376 20.0875C462.435 19.7419 462.514 19.3936 462.598 19.0481L462.461 19.0138C462.257 19.7831 461.859 19.8516 461.05 19.8461C460.619 19.8461 460.187 19.8461 460.184 19.3689V17.7399H461.036C461.515 17.7344 461.563 18.0237 461.599 18.4145L461.746 18.3844C461.733 18.1307 461.726 17.877 461.726 17.6261C461.726 17.3669 461.733 17.1105 461.746 16.8513H461.599C461.559 17.2078 461.448 17.4601 461.031 17.456H460.184V15.5966H461.168C461.881 15.5911 462 15.96 462.028 16.3919L462.176 16.3521C462.165 16.1574 462.157 15.9092 462.157 15.6802C462.157 15.5623 462.16 15.4512 462.164 15.3539C461.699 15.3566 461.003 15.3813 460.44 15.3813C459.877 15.3813 459.184 15.3566 458.764 15.3539V15.5006H458.831C459.076 15.5006 459.367 15.5431 459.368 15.9216V19.5198C459.367 19.8996 459.076 19.9407 458.831 19.9435H458.764V20.0875C459.163 20.0875 459.955 20.0614 460.557 20.0614C461.161 20.0614 461.934 20.0875 462.376 20.0875ZM462.402 20.1481C461.96 20.1481 461.174 20.1193 460.558 20.1193C459.941 20.1193 459.127 20.1481 458.735 20.1481H458.705V20.1193V19.9122V19.8821H458.735H458.831C459.08 19.8793 459.304 19.8574 459.309 19.5201V15.9219C459.304 15.5873 459.08 15.5653 458.831 15.5599H458.705V15.5311V15.2952H458.735C459.154 15.2952 459.865 15.3213 460.44 15.3213C461.018 15.3213 461.728 15.2952 462.194 15.2952H462.226L462.224 15.3254C462.219 15.4296 462.218 15.5503 462.218 15.6805C462.218 15.9178 462.224 16.1769 462.237 16.373L462.238 16.3977L462.216 16.4045L461.975 16.4676L461.973 16.432C461.933 15.9863 461.874 15.6627 461.168 15.6572H460.244L460.243 17.396H461.031C461.425 17.3919 461.495 17.1889 461.543 16.8187L461.546 16.7926H461.572H461.807V16.8228C461.793 17.0902 461.785 17.3576 461.785 17.6263C461.785 17.8855 461.793 18.1461 461.807 18.408V18.4313L461.782 18.4368L461.546 18.4861L461.543 18.4532C461.495 18.0336 461.492 17.8046 461.037 17.7991H460.244V19.3692C460.244 19.7861 460.604 19.7847 461.05 19.7861C461.877 19.782 462.207 19.7422 462.413 18.9702L462.42 18.9428L462.449 18.9482L462.669 19.0045L462.662 19.0333C462.575 19.398 462.491 19.76 462.43 20.1234L462.424 20.1481H462.402Z" fill="#081F2D"></path><path fill-rule="evenodd" clip-rule="evenodd" d="M464.437 17.6457H464.771C465.456 17.6457 465.826 17.3851 465.826 16.5733C465.826 15.9631 465.436 15.5709 464.826 15.5709C464.62 15.5709 464.531 15.5929 464.437 15.5997V17.6457ZM463.559 16.0523C463.559 15.5518 463.285 15.5312 463.071 15.5312H462.948V15.3242C463.169 15.3242 463.593 15.3516 464.01 15.3516C464.422 15.3516 464.75 15.3242 465.113 15.3242C465.976 15.3242 466.745 15.5587 466.745 16.5336C466.745 17.1507 466.335 17.5292 465.793 17.7431L466.964 19.4997C467.156 19.7904 467.293 19.8727 467.629 19.9111V20.1195C467.402 20.1195 467.183 20.0921 466.957 20.0921C466.745 20.0921 466.525 20.1195 466.313 20.1195C465.786 19.4243 465.332 18.6824 464.887 17.8926H464.437V19.3626C464.437 19.8932 464.683 19.9111 464.997 19.9111H465.121V20.1195C464.73 20.1195 464.334 20.0921 463.943 20.0921C463.612 20.0921 463.29 20.1195 462.948 20.1195V19.9111H463.071C463.326 19.9111 463.559 19.7959 463.559 19.5422V16.0523Z" fill="#081F2D"></path><path fill-rule="evenodd" clip-rule="evenodd" d="M464.771 17.6154C465.449 17.61 465.79 17.3741 465.798 16.5746C465.794 15.9754 465.422 15.6024 464.825 15.6011C464.639 15.6011 464.553 15.6175 464.464 15.6257V17.6154H464.771ZM464.435 17.6744H464.405V15.5708L464.431 15.5695C464.524 15.5612 464.619 15.542 464.825 15.542C465.449 15.542 465.856 15.9493 465.856 16.5746C465.854 17.3946 465.462 17.673 464.771 17.6744H464.435ZM464.435 17.8634H464.904L464.913 17.8771C465.359 18.667 465.809 19.4088 466.312 20.089C466.522 20.089 466.741 20.0616 466.956 20.0616C467.174 20.0616 467.385 20.0849 467.599 20.0876V19.9368C467.277 19.8984 467.127 19.801 466.939 19.5158L465.747 17.7277L465.78 17.714C466.317 17.5028 466.713 17.1353 466.713 16.5319C466.713 15.5789 465.974 15.3581 465.114 15.354C464.751 15.354 464.423 15.3814 464.01 15.3814C463.607 15.3814 463.202 15.3568 462.976 15.354V15.5007H463.071C463.284 15.5007 463.588 15.535 463.588 16.052V19.5419C463.588 19.8161 463.328 19.9423 463.071 19.9436H462.976V20.0876C463.308 20.0876 463.618 20.0616 463.941 20.0616C464.324 20.0616 464.71 20.0876 465.089 20.0876V19.9436H464.996C464.684 19.9423 464.405 19.9039 464.405 19.3622V17.8634H464.435ZM467.629 20.1482C467.399 20.1482 467.182 20.1208 466.956 20.1208C466.747 20.1208 466.528 20.1482 466.288 20.1359C465.764 19.4448 465.313 18.707 464.869 17.9227H464.464V19.3625C464.472 19.8781 464.68 19.874 464.996 19.8822H465.15V19.911V20.1482H465.12C464.728 20.1482 464.33 20.1208 463.941 20.1208C463.613 20.1208 463.293 20.1482 462.948 20.1482H462.918V20.1181V19.8822H462.948H463.071C463.318 19.8808 463.527 19.7725 463.528 19.5421V16.0523C463.523 15.5641 463.285 15.5668 463.071 15.56H462.918V15.5298V15.2939H462.948C463.17 15.2939 463.594 15.3214 464.01 15.3214C464.419 15.3214 464.749 15.2939 465.114 15.2939C465.978 15.2967 466.773 15.5353 466.775 16.5322C466.775 17.1534 466.366 17.5401 465.837 17.7567L466.989 19.4832C467.18 19.7684 467.299 19.8397 467.633 19.8822L467.658 19.8863V19.911V20.1482H467.629Z" fill="#081F2D"></path><path fill-rule="evenodd" clip-rule="evenodd" d="M472.281 18.7649L472.295 18.7512V16.176C472.295 15.6124 471.905 15.5301 471.698 15.5301H471.549V15.3244C471.871 15.3244 472.185 15.3519 472.507 15.3519C472.789 15.3519 473.068 15.3244 473.351 15.3244V15.5301H473.248C472.96 15.5301 472.638 15.585 472.638 16.4022V19.5287C472.638 19.7673 472.645 20.0087 472.678 20.2212H472.419L468.889 16.2788V19.1078C468.889 19.707 469.005 19.9113 469.533 19.9113H469.65V20.1184C469.356 20.1184 469.06 20.0909 468.767 20.0909C468.458 20.0909 468.143 20.1184 467.834 20.1184V19.9113H467.928C468.403 19.9113 468.547 19.5891 468.547 19.0406V16.1472C468.547 15.7632 468.232 15.5301 467.923 15.5301H467.834V15.3244C468.094 15.3244 468.362 15.3519 468.622 15.3519C468.827 15.3519 469.026 15.3244 469.231 15.3244L472.281 18.7649Z" fill="#081F2D"></path><path fill-rule="evenodd" clip-rule="evenodd" d="M472.265 18.7516V18.7489L472.259 18.7434L472.265 18.7516ZM472.281 18.7642L472.302 18.745L472.281 18.7642ZM472.418 20.1898H472.642C472.613 19.9841 472.606 19.7551 472.606 19.5275V16.4024C472.606 15.5782 472.954 15.5014 473.248 15.4987H473.319V15.3533C473.05 15.3561 472.779 15.3808 472.507 15.3808C472.192 15.3808 471.887 15.3561 471.576 15.3533V15.4987H471.698C471.909 15.5014 472.325 15.5933 472.325 16.1761L472.315 18.7719L472.301 18.7856L472.281 18.8076L469.231 15.3533C469.027 15.3533 468.829 15.3808 468.622 15.3808C468.367 15.3808 468.112 15.3561 467.863 15.3533V15.4987H467.923C468.244 15.5014 468.575 15.7455 468.575 16.1473V19.0379C468.575 19.5892 468.419 19.9402 467.928 19.943L467.863 19.9416V20.0869C468.158 20.0856 468.465 20.0609 468.764 20.0609C469.052 20.0609 469.336 20.0856 469.619 20.0869V19.943H469.533C468.993 19.9416 468.859 19.7057 468.859 19.1079V16.2022L472.418 20.1898ZM472.679 20.2505L472.396 20.2409L468.919 16.3562V19.1083C468.927 19.7062 469.016 19.8748 469.534 19.8817H469.679V19.9118V20.1477H469.649C469.352 20.1477 469.059 20.1203 468.765 20.1203C468.46 20.1203 468.142 20.1477 467.834 20.1477H467.803V20.1189V19.8817H467.834H467.929C468.382 19.8803 468.512 19.5882 468.516 19.0384V16.1477C468.516 15.7816 468.216 15.5595 467.923 15.5595H467.803V15.5307V15.2948H467.834C468.096 15.2948 468.362 15.3209 468.622 15.3209C468.823 15.3209 469.022 15.2948 469.252 15.303L472.265 18.7024V16.1765C472.262 15.6308 471.897 15.5622 471.698 15.5595H471.518V15.5307V15.2948H471.548C471.871 15.2948 472.187 15.3209 472.507 15.3209C472.786 15.3209 473.068 15.2948 473.35 15.2948H473.379V15.325V15.5595H473.35H473.249C472.965 15.5677 472.674 15.5924 472.667 16.4028V19.5279C472.667 19.7679 472.673 20.0065 472.707 20.2176L472.711 20.2505H472.679Z" fill="#081F2D"></path><path fill-rule="evenodd" clip-rule="evenodd" d="M475.453 16.0939H475.438L474.802 18.037H476.083L475.453 16.0939ZM474.454 19.1368C474.384 19.3699 474.301 19.5495 474.301 19.6716C474.301 19.8786 474.59 19.9115 474.814 19.9115H474.891V20.12C474.617 20.1049 474.337 20.0925 474.06 20.0925C473.814 20.0925 473.569 20.1049 473.321 20.12V19.9115H473.364C473.631 19.9115 473.856 19.7538 473.958 19.4645L475.055 16.3133C475.144 16.0597 475.268 15.7168 475.311 15.4618C475.528 15.3864 475.803 15.2492 475.933 15.167C475.954 15.1587 475.966 15.1519 475.988 15.1519C476.007 15.1519 476.021 15.1519 476.036 15.1738C476.055 15.2287 476.076 15.2904 476.098 15.3452L477.359 18.9379C477.44 19.1779 477.522 19.4316 477.611 19.6373C477.694 19.8306 477.838 19.9115 478.064 19.9115H478.104V20.12C477.797 20.1049 477.488 20.0925 477.159 20.0925C476.824 20.0925 476.481 20.1049 476.13 20.12V19.9115H476.207C476.364 19.9115 476.631 19.8855 476.631 19.7141C476.631 19.6249 476.57 19.4385 476.494 19.2191L476.226 18.4223H474.672L474.454 19.1368Z" fill="#081F2D"></path><path fill-rule="evenodd" clip-rule="evenodd" d="M475.423 16.1025L475.438 16.097L475.423 16.1025ZM474.842 18.0072H476.04L475.445 16.167L474.842 18.0072ZM474.76 18.0675L475.415 16.0641H475.438H475.452V16.0942L475.445 16.0956L475.452 16.0942V16.0641H475.473L476.124 18.0675H474.76ZM476.161 20.0858C476.5 20.0749 476.831 20.0611 477.159 20.0611C477.477 20.0611 477.775 20.0749 478.073 20.0858V19.9432H478.064C477.83 19.9446 477.667 19.8513 477.582 19.6498C477.493 19.4413 477.41 19.1863 477.331 18.9463L476.069 15.355C476.047 15.3001 476.026 15.237 476.009 15.189C476.003 15.1822 476.005 15.1822 475.999 15.1822H475.987C475.972 15.1822 475.965 15.1863 475.947 15.1904C475.814 15.2768 475.539 15.4125 475.337 15.466C475.294 15.7266 475.171 16.0694 475.082 16.3231L473.985 19.4756C473.881 19.7732 473.64 19.9432 473.361 19.9432H473.35V20.0858C473.585 20.0749 473.824 20.0611 474.062 20.0611C474.326 20.0611 474.597 20.0749 474.858 20.0858V19.9432H474.814C474.591 19.9405 474.279 19.9144 474.271 19.6731C474.271 19.5346 474.356 19.3591 474.423 19.1287L474.453 19.1369L474.423 19.1273L474.649 18.3923H476.247L476.52 19.2096C476.597 19.429 476.66 19.6127 476.66 19.7128C476.65 19.924 476.362 19.9391 476.206 19.9432H476.161V20.0858ZM478.102 20.1477C477.793 20.134 477.485 20.1203 477.16 20.1203C476.823 20.1203 476.481 20.134 476.132 20.1477L476.101 20.1504V20.1189V19.8817H476.131H476.206C476.365 19.8817 476.6 19.8446 476.6 19.713C476.601 19.6348 476.54 19.4456 476.466 19.2276L476.203 18.4514H474.693L474.48 19.1453C474.411 19.3798 474.327 19.5608 474.329 19.6732C474.33 19.8405 474.587 19.8817 474.814 19.8817H474.92V19.9118V20.1504L474.888 20.1477C474.615 20.134 474.334 20.1203 474.062 20.1203C473.815 20.1203 473.569 20.134 473.323 20.1477L473.29 20.1504V20.1189V19.8817H473.322H473.361C473.617 19.8803 473.831 19.7349 473.929 19.4552L475.026 16.304C475.115 16.049 475.239 15.7062 475.299 15.4333C475.514 15.3592 475.79 15.2221 475.92 15.1371C475.94 15.1316 475.96 15.122 475.987 15.122C476.003 15.122 476.04 15.1261 476.062 15.1618C476.081 15.218 476.103 15.2797 476.125 15.3359L477.387 18.9273C477.468 19.1686 477.55 19.4223 477.639 19.6252C477.718 19.809 477.844 19.8803 478.064 19.8817H478.134V19.9118V20.1504L478.102 20.1477Z" fill="#081F2D"></path><path fill-rule="evenodd" clip-rule="evenodd" d="M478.406 15.6674C477.892 15.6674 477.871 15.7908 477.769 16.2927H477.563C477.589 16.1007 477.625 15.9087 477.646 15.7085C477.673 15.5165 477.687 15.3245 477.687 15.1257H477.852C477.906 15.3314 478.078 15.3245 478.263 15.3245H481.798C481.982 15.3245 482.153 15.3177 482.168 15.112L482.332 15.1394C482.306 15.3245 482.279 15.5097 482.257 15.6962C482.243 15.8813 482.243 16.0664 482.243 16.2515L482.036 16.3283C482.026 16.0746 481.99 15.6674 481.53 15.6674H480.407V19.3218C480.407 19.8511 480.648 19.9114 480.976 19.9114H481.106V20.1199C480.838 20.1199 480.36 20.0924 479.988 20.0924C479.578 20.0924 479.099 20.1199 478.832 20.1199V19.9114H478.961C479.34 19.9114 479.53 19.8785 479.53 19.3355V15.6674H478.406Z" fill="#081F2D"></path><path fill-rule="evenodd" clip-rule="evenodd" d="M481.105 20.1477C480.837 20.1477 480.357 20.1203 479.989 20.1203C479.579 20.1203 479.099 20.1477 478.831 20.1477H478.799V20.1189V19.8817H478.831H478.961C479.339 19.8735 479.489 19.868 479.499 19.3359L479.497 15.6966H478.405V15.6664V15.6363H479.559V19.3359C479.559 19.8872 479.336 19.9407 478.961 19.942H478.858V20.0901C479.132 20.086 479.592 20.0613 479.989 20.0613C480.346 20.0613 480.804 20.086 481.076 20.0901V19.942H480.974C480.644 19.9407 480.379 19.8625 480.377 19.3208V15.6363H481.531C481.99 15.639 482.051 16.0312 482.063 16.2849L482.213 16.2314C482.213 16.0518 482.215 15.8721 482.227 15.6911C482.246 15.5156 482.272 15.3387 482.297 15.1632L482.193 15.1467C482.161 15.3469 481.968 15.3565 481.799 15.3538H478.262H478.226C478.065 15.3565 477.89 15.3469 477.827 15.1536H477.716C477.713 15.3442 477.701 15.5293 477.673 15.7117C477.656 15.9009 477.621 16.0833 477.597 16.2629H477.743C477.833 15.7844 477.894 15.6294 478.405 15.6363V15.6664V15.6966C477.898 15.7062 477.909 15.7926 477.797 16.3L477.791 16.3233H477.769H477.528L477.532 16.289C477.56 16.0943 477.595 15.9037 477.615 15.7048C477.643 15.5128 477.656 15.3222 477.656 15.1248V15.0946H477.686H477.873L477.879 15.1165C477.926 15.2907 478.051 15.2907 478.226 15.2934L478.262 15.2948H481.797C481.988 15.2907 482.124 15.288 482.137 15.1097L482.14 15.0768L482.171 15.0836L482.365 15.1138L482.361 15.144C482.332 15.3264 482.306 15.5128 482.285 15.6966C482.272 15.8803 482.272 16.0655 482.272 16.2506V16.2725L482.253 16.2808L482.01 16.3685L482.008 16.3287C481.99 16.0709 481.963 15.6966 481.531 15.6966H480.436V19.3208C480.444 19.8392 480.648 19.8748 480.974 19.8817H481.134V19.9119V20.1477H481.105Z" fill="#081F2D"></path><path fill-rule="evenodd" clip-rule="evenodd" d="M482.584 19.9111H482.68C482.927 19.9111 483.186 19.8782 483.186 19.5203V15.9221C483.186 15.5642 482.927 15.5299 482.68 15.5299H482.584V15.3242C482.851 15.3242 483.261 15.3517 483.597 15.3517C483.941 15.3517 484.352 15.3242 484.673 15.3242V15.5299H484.578C484.331 15.5299 484.07 15.5642 484.07 15.9221V19.5203C484.07 19.8782 484.331 19.9111 484.578 19.9111H484.673V20.1182C484.345 20.1182 483.933 20.0908 483.591 20.0908C483.254 20.0908 482.851 20.1182 482.584 20.1182V19.9111Z" fill="#081F2D"></path><path fill-rule="evenodd" clip-rule="evenodd" d="M484.643 20.0875V19.9421H484.579C484.333 19.9421 484.043 19.8996 484.043 19.5198V15.9216C484.043 15.5431 484.333 15.5006 484.579 15.5006H484.643V15.3539C484.329 15.3566 483.93 15.3813 483.597 15.3813C483.272 15.3813 482.88 15.3566 482.616 15.3539V15.5006H482.68C482.923 15.5006 483.216 15.5431 483.216 15.9216V19.5198C483.216 19.8996 482.923 19.9421 482.68 19.9421H482.616V20.0875C482.878 20.0847 483.265 20.0614 483.591 20.0614C483.925 20.0614 484.322 20.0861 484.643 20.0875ZM484.674 20.1481C484.344 20.1481 483.934 20.1193 483.591 20.1193C483.256 20.1193 482.851 20.1481 482.584 20.1481H482.556V20.1193V19.9122V19.8821H482.584H482.68C482.928 19.8793 483.155 19.8574 483.156 19.5201V15.9219C483.155 15.5873 482.928 15.5653 482.68 15.5599H482.556V15.5311V15.2952H482.584C482.851 15.2952 483.263 15.3213 483.597 15.3213C483.939 15.3213 484.351 15.2952 484.674 15.2952H484.704V15.324V15.5599H484.674H484.579C484.329 15.5653 484.103 15.5873 484.1 15.9219V19.5201C484.103 19.8574 484.329 19.8793 484.579 19.8821H484.704V19.9122V20.1481H484.674Z" fill="#081F2D"></path><path fill-rule="evenodd" clip-rule="evenodd" d="M487.511 19.9198C488.841 19.9198 489.072 18.7446 489.072 17.7436C489.072 16.7385 488.532 15.5235 487.394 15.5235C486.195 15.5235 485.839 16.5959 485.839 17.5146C485.839 18.7446 486.4 19.9198 487.511 19.9198ZM487.407 15.2216C488.867 15.2216 490.033 16.1294 490.033 17.5912C490.033 19.1722 488.903 20.2212 487.443 20.2212C485.99 20.2212 484.88 19.2326 484.88 17.7557C484.88 16.3282 485.983 15.2216 487.407 15.2216Z" fill="#081F2D"></path><path fill-rule="evenodd" clip-rule="evenodd" d="M485.809 17.5143C485.811 16.5901 486.171 15.4917 487.395 15.4917C488.558 15.4958 489.101 16.7341 489.102 17.7433C489.101 18.743 488.866 19.9469 487.511 19.9469V19.9195V19.8894C488.814 19.888 489.039 18.743 489.042 17.7433C489.042 16.7464 488.508 15.5548 487.395 15.5534C486.219 15.5548 485.87 16.5997 485.869 17.5143C485.869 18.7375 486.426 19.8866 487.511 19.8894V19.9195V19.9469C486.374 19.9456 485.811 18.7512 485.809 17.5143ZM484.85 17.7558C484.852 16.3119 485.968 15.1943 487.407 15.1916V15.2217V15.2505C485.999 15.2505 484.908 16.3434 484.907 17.7558C484.911 19.2162 486.004 20.1898 487.443 20.1912C488.887 20.1898 490.001 19.1545 490.004 17.5899C490.001 16.146 488.856 15.2533 487.407 15.2505V15.2217V15.1916C488.879 15.1929 490.059 16.1089 490.062 17.5899C490.06 19.1874 488.916 20.2474 487.443 20.2515C485.977 20.2474 484.852 19.2491 484.85 17.7558Z" fill="#081F2D"></path><path fill-rule="evenodd" clip-rule="evenodd" d="M494.651 18.7649L494.664 18.7512V16.176C494.664 15.6124 494.273 15.5301 494.066 15.5301H493.919V15.3244C494.239 15.3244 494.555 15.3519 494.875 15.3519C495.157 15.3519 495.437 15.3244 495.719 15.3244V15.5301H495.615C495.329 15.5301 495.006 15.585 495.006 16.4022V19.5287C495.006 19.7673 495.013 20.0087 495.047 20.2212H494.789L491.258 16.2788V19.1078C491.258 19.707 491.373 19.9113 491.902 19.9113H492.018V20.1184C491.724 20.1184 491.43 20.0909 491.135 20.0909C490.826 20.0909 490.511 20.1184 490.202 20.1184V19.9113H490.298C490.773 19.9113 490.915 19.5891 490.915 19.0406V16.1472C490.915 15.7632 490.6 15.5301 490.291 15.5301H490.202V15.3244C490.462 15.3244 490.73 15.3519 490.99 15.3519C491.197 15.3519 491.394 15.3244 491.601 15.3244L494.651 18.7649Z" fill="#081F2D"></path><path fill-rule="evenodd" clip-rule="evenodd" d="M494.634 18.7516V18.7489L494.628 18.7434L494.634 18.7516ZM494.651 18.7642L494.672 18.745L494.651 18.7642ZM494.788 20.1898H495.012C494.982 19.9841 494.977 19.7551 494.977 19.5275V16.4024C494.977 15.5769 495.323 15.5014 495.617 15.4987H495.69V15.3533C495.42 15.3561 495.149 15.3808 494.875 15.3808C494.563 15.3808 494.257 15.3561 493.946 15.3533V15.4987H494.067C494.279 15.5014 494.692 15.5961 494.692 16.1761L494.685 18.7719L494.672 18.7856L494.651 18.8076L491.6 15.3533C491.399 15.3533 491.197 15.3808 490.991 15.3808C490.738 15.3808 490.482 15.3561 490.231 15.3533V15.4987H490.292C490.613 15.5014 490.946 15.7455 490.946 16.1473V19.0407C490.946 19.5892 490.791 19.9402 490.298 19.943L490.231 19.9416V20.0869C490.528 20.0856 490.835 20.0609 491.134 20.0609C491.42 20.0609 491.704 20.0856 491.988 20.0869V19.943H491.901C491.363 19.9416 491.229 19.7057 491.229 19.1079V16.2008L494.788 20.1898ZM495.05 20.2505L494.765 20.2409L491.288 16.3562V19.1083C491.296 19.7062 491.387 19.8748 491.901 19.8817H492.049V19.9118V20.1477H492.02C491.722 20.1477 491.428 20.1203 491.135 20.1203C490.828 20.1203 490.514 20.1477 490.203 20.1477H490.173V20.1189V19.8817H490.203H490.299C490.75 19.8803 490.88 19.5882 490.887 19.0411V16.1477C490.886 15.7816 490.586 15.5595 490.292 15.5595H490.173V15.5307V15.2948H490.203C490.464 15.2948 490.731 15.3209 490.991 15.3209C491.194 15.3209 491.392 15.2948 491.623 15.3044L494.634 18.7024V16.1765C494.632 15.6308 494.267 15.5649 494.067 15.5595H493.886V15.5307V15.2948H493.918C494.241 15.2948 494.556 15.3209 494.876 15.3209C495.156 15.3209 495.435 15.2948 495.72 15.2948H495.749V15.3236V15.5595H495.72H495.616C495.334 15.5677 495.043 15.5937 495.037 16.4028V19.5279C495.037 19.7679 495.043 20.0078 495.076 20.2176L495.081 20.2505H495.05Z" fill="#081F2D"></path><path fill-rule="evenodd" clip-rule="evenodd" d="M497.823 16.0939H497.808L497.171 18.037H498.454L497.823 16.0939ZM496.822 19.1368C496.755 19.3699 496.671 19.5495 496.671 19.6716C496.671 19.8786 496.96 19.9115 497.184 19.9115H497.261V20.12C496.987 20.1049 496.705 20.0925 496.43 20.0925C496.184 20.0925 495.938 20.1049 495.691 20.12V19.9115H495.731C495.999 19.9115 496.226 19.7538 496.328 19.4645L497.425 16.3133C497.514 16.0597 497.637 15.7168 497.678 15.4618C497.898 15.3864 498.171 15.2492 498.304 15.167C498.321 15.1587 498.336 15.1519 498.357 15.1519C498.377 15.1519 498.39 15.1519 498.405 15.1738C498.424 15.2287 498.446 15.2904 498.468 15.3452L499.728 18.9379C499.809 19.1779 499.891 19.4316 499.981 19.6373C500.063 19.8306 500.208 19.9115 500.433 19.9115H500.475V20.12C500.166 20.1049 499.857 20.0925 499.528 20.0925C499.193 20.0925 498.851 20.1049 498.501 20.12V19.9115H498.577C498.733 19.9115 499.001 19.8855 499.001 19.7141C499.001 19.6249 498.938 19.4385 498.863 19.2191L498.596 18.4223H497.042L496.822 19.1368Z" fill="#081F2D"></path><path fill-rule="evenodd" clip-rule="evenodd" d="M497.794 16.1023L497.809 16.0968L497.794 16.1023ZM497.212 18.007H498.411L497.816 16.1682L497.212 18.007ZM497.13 18.066L497.787 16.064H497.809H497.823V16.0941L497.816 16.0955L497.823 16.0941V16.064H497.845L498.492 18.066H497.13ZM498.53 20.0868C498.868 20.0745 499.202 20.0608 499.529 20.0608C499.847 20.0608 500.146 20.0745 500.445 20.0855L500.444 19.9428H500.432C500.2 19.9428 500.039 19.851 499.953 19.6494C499.863 19.441 499.78 19.1859 499.7 18.9459L498.438 15.3546C498.418 15.2997 498.396 15.2367 498.381 15.19C498.375 15.1818 498.375 15.1818 498.37 15.1818H498.356C498.342 15.1818 498.335 15.1873 498.319 15.1914C498.185 15.2751 497.91 15.4122 497.707 15.4657C497.665 15.7262 497.539 16.0676 497.452 16.3227L496.354 19.4752C496.25 19.7728 496.011 19.9428 495.73 19.9428H495.721V20.0855C495.956 20.0745 496.193 20.0608 496.431 20.0608C496.696 20.0608 496.967 20.0745 497.231 20.0855V19.9428H497.185C496.962 19.9401 496.648 19.9154 496.64 19.6713C496.641 19.5342 496.728 19.3601 496.793 19.1283L496.821 19.1365L496.793 19.1269L497.019 18.3919H498.617L498.891 19.2078C498.966 19.43 499.029 19.6124 499.029 19.7125C499.02 19.9236 498.732 19.9387 498.575 19.9428H498.53V20.0868ZM500.472 20.1475C500.163 20.1351 499.856 20.12 499.529 20.12C499.194 20.12 498.85 20.1351 498.501 20.1475L498.471 20.1502V20.1187V19.8814H498.501H498.575C498.734 19.8814 498.971 19.8444 498.971 19.7128C498.972 19.6346 498.91 19.4481 498.835 19.2273L498.574 18.4512H497.062L496.85 19.1451C496.781 19.3809 496.699 19.5606 496.701 19.6716C496.701 19.8403 496.958 19.8814 497.185 19.8814H497.289V19.9116V20.1502L497.258 20.1475C496.984 20.1351 496.703 20.12 496.431 20.12C496.185 20.12 495.94 20.1351 495.692 20.1475L495.662 20.1502V20.1187V19.8814H495.692H495.731C495.988 19.8814 496.201 19.7333 496.3 19.455L497.397 16.3024C497.483 16.0487 497.608 15.7059 497.668 15.433C497.884 15.359 498.159 15.2219 498.292 15.1369C498.31 15.1314 498.329 15.1231 498.356 15.1231C498.375 15.1218 498.41 15.1259 498.433 15.1629C498.452 15.2164 498.473 15.2795 498.496 15.3343L499.756 18.927C499.837 19.1684 499.92 19.4221 500.008 19.6264C500.089 19.8088 500.215 19.8801 500.432 19.8814H500.503V19.9116V20.1502L500.472 20.1475Z" fill="#081F2D"></path><path fill-rule="evenodd" clip-rule="evenodd" d="M502.202 19.4455C502.202 19.7197 502.392 19.802 502.611 19.8308C502.891 19.8514 503.199 19.8514 503.517 19.8171C503.804 19.7814 504.052 19.6169 504.172 19.4455C504.283 19.2946 504.343 19.1013 504.385 18.9505H504.584C504.51 19.3426 504.413 19.728 504.331 20.1188C503.729 20.1188 503.125 20.0913 502.522 20.0913C501.918 20.0913 501.316 20.1188 500.713 20.1188V19.9117H500.807C501.055 19.9117 501.323 19.8774 501.323 19.4523V15.9227C501.323 15.5648 501.055 15.5305 500.807 15.5305H500.713V15.3248C501.075 15.3248 501.433 15.3523 501.795 15.3523C502.146 15.3523 502.488 15.3248 502.838 15.3248V15.5305H502.665C502.404 15.5305 502.202 15.5374 502.202 15.9008V19.4455Z" fill="#081F2D"></path><path fill-rule="evenodd" clip-rule="evenodd" d="M504.307 20.0875C504.386 19.7159 504.475 19.3511 504.549 18.9795H504.408C504.365 19.129 504.304 19.3141 504.197 19.4635C504.068 19.6418 503.815 19.8091 503.518 19.8461C503.339 19.864 503.161 19.8736 502.993 19.8736C502.859 19.8736 502.732 19.8681 502.607 19.8585C502.385 19.8338 502.169 19.7392 502.169 19.4457V15.901C502.169 15.5198 502.41 15.5006 502.666 15.5006H502.807V15.3539C502.469 15.3566 502.136 15.3813 501.796 15.3813C501.44 15.3813 501.094 15.3566 500.742 15.3539V15.5006H500.808C501.053 15.5006 501.352 15.5431 501.352 15.9202V19.4526C501.352 19.8969 501.054 19.9421 500.808 19.9421H500.742V20.0875C501.335 20.0875 501.927 20.0614 502.522 20.0614C503.119 20.0614 503.713 20.0875 504.307 20.0875ZM504.332 20.1481C503.727 20.1481 503.125 20.1207 502.523 20.1207C501.919 20.1207 501.316 20.1481 500.712 20.1481H500.684V20.1179V19.8821H500.712H500.808C501.057 19.8766 501.291 19.8588 501.294 19.4529V15.9205C501.291 15.5873 501.059 15.5653 500.808 15.5599H500.684V15.5311V15.2952H500.712C501.078 15.2952 501.433 15.3213 501.796 15.3213C502.144 15.3213 502.486 15.2952 502.839 15.2952H502.866V15.324V15.5599H502.839H502.666C502.399 15.5681 502.235 15.5544 502.23 15.9013V19.446C502.231 19.7011 502.398 19.771 502.613 19.8012C502.735 19.8094 502.861 19.8149 502.993 19.8149C503.16 19.8149 503.335 19.8067 503.512 19.7875C503.791 19.7545 504.032 19.5927 504.15 19.4296C504.255 19.2828 504.316 19.0936 504.356 18.9441L504.363 18.9208H504.386H504.62L504.615 18.9565C504.537 19.35 504.444 19.734 504.36 20.1248L504.355 20.1481H504.332Z" fill="#081F2D"></path><path fill-rule="evenodd" clip-rule="evenodd" d="M504.385 15.8545H504.47C504.563 15.8545 504.607 15.7832 504.607 15.6694C504.607 15.5542 504.538 15.5144 504.466 15.5144H504.385V15.8545ZM504.141 16.2357V16.2C504.23 16.1877 504.245 16.1904 504.245 16.1356V15.5994C504.245 15.5254 504.239 15.4993 504.144 15.5034V15.4664H504.515C504.641 15.4664 504.757 15.5267 504.757 15.6584C504.757 15.7653 504.687 15.8449 504.586 15.8764L504.705 16.0423C504.761 16.1164 504.823 16.1877 504.865 16.2124V16.2357H504.724C504.656 16.2357 504.597 16.0931 504.466 15.9025H504.385V16.1424C504.385 16.1904 504.401 16.1877 504.49 16.2V16.2357H504.141ZM504.503 16.4424C504.824 16.4424 505.073 16.1654 505.073 15.8555C505.073 15.5442 504.828 15.2658 504.503 15.2658C504.178 15.2658 503.929 15.5442 503.929 15.8555C503.929 16.1654 504.178 16.4424 504.503 16.4424ZM504.501 15.129C504.915 15.129 505.222 15.4471 505.222 15.8544C505.222 16.2603 504.915 16.5757 504.501 16.5757C504.088 16.5757 503.78 16.2603 503.78 15.8544C503.779 15.4471 504.088 15.129 504.501 15.129Z" fill="#081F2D"></path></g><g clip-path="url(#clip2)"><path fill-rule="evenodd" clip-rule="evenodd" d="M535.068 0C533.04 0.0399136 531.205 1.84961 531.205 3.87672C531.205 5.00449 531.204 9.46887 531.203 13.9069C531.579 14.1405 533.391 14.7137 534.119 14.7638C535.714 14.8759 536.704 14.3562 536.857 13.045L536.85 8.1755H540.378V12.9337C540.193 15.658 537.768 16.2143 534.077 16.0308C533.122 15.9824 531.823 15.7404 531.202 15.5808C531.201 20.0222 531.2 24 531.2 24H537.342C539.018 24 541.2 22.4561 541.2 20.108V0H535.068Z" fill="#081F2D"></path><path fill-rule="evenodd" clip-rule="evenodd" d="M535.068 0C533.04 0.0399136 531.205 1.84961 531.205 3.87672C531.205 5.00449 531.204 9.46887 531.203 13.9069C531.579 14.1405 533.391 14.7137 534.119 14.7638C535.714 14.8759 536.704 14.3562 536.857 13.045L536.85 8.1755H540.378V12.9337C540.193 15.658 537.768 16.2143 534.077 16.0308C533.122 15.9824 531.823 15.7404 531.202 15.5808C531.201 20.0222 531.2 24 531.2 24H537.342C539.018 24 541.2 22.4561 541.2 20.108V0H535.068Z" fill="#081F2D"></path><path fill-rule="evenodd" clip-rule="evenodd" d="M546.068 0C544.04 0.0399136 542.204 1.84961 542.204 3.87672C542.204 4.59092 542.204 6.64604 542.203 9.18353C543.435 8.2341 545.423 7.76872 547.952 7.96065C549.391 8.06935 550.455 8.26722 551.036 8.43621V10.1211C550.396 9.80601 549.134 9.33724 548.08 9.26336C545.695 9.09351 544.444 10.1958 544.444 11.9766C544.444 13.5791 545.41 14.9515 548.07 14.7689C548.947 14.7086 550.407 14.205 551.028 13.9137L551.036 15.5476C550.501 15.7132 548.838 16.0708 547.272 16.0835C544.916 16.1022 543.253 15.6088 542.202 14.808C542.2 19.55 542.2 24 542.2 24H548.341C550.018 24 552.2 22.4561 552.2 20.108V0H546.068Z" fill="#081F2D"></path><path fill-rule="evenodd" clip-rule="evenodd" d="M546.068 0C544.04 0.0399136 542.204 1.84961 542.204 3.87672C542.204 4.59092 542.204 6.64604 542.203 9.18353C543.435 8.2341 545.423 7.76872 547.952 7.96065C549.391 8.06935 550.455 8.26722 551.036 8.43621V10.1211C550.396 9.80601 549.134 9.33724 548.08 9.26336C545.695 9.09351 544.444 10.1958 544.444 11.9766C544.444 13.5791 545.41 14.9515 548.07 14.7689C548.947 14.7086 550.407 14.205 551.028 13.9137L551.036 15.5476C550.501 15.7132 548.838 16.0708 547.272 16.0835C544.916 16.1022 543.253 15.6088 542.202 14.808C542.2 19.55 542.2 24 542.2 24H548.341C550.018 24 552.2 22.4561 552.2 20.108V0H546.068Z" fill="#081F2D"></path><path fill-rule="evenodd" clip-rule="evenodd" d="M557.068 0C555.041 0.0399136 553.204 1.84961 553.204 3.87672C553.204 4.49071 553.204 6.0949 553.204 8.14323H559.042C560.204 8.14323 561.572 8.63323 561.572 10.0251C561.572 10.7724 561.169 11.6191 559.714 11.8926V11.9248C560.564 11.9248 562.036 12.4148 562.036 13.8925C562.036 15.4177 560.446 15.8415 559.594 15.8415L553.202 15.8483C553.201 20.181 553.2 24 553.2 24H559.342C561.018 24 563.2 22.4561 563.2 20.108V0H557.068Z" fill="#081F2D"></path><path fill-rule="evenodd" clip-rule="evenodd" d="M557.068 0C555.041 0.0399136 553.204 1.84961 553.204 3.87672C553.204 4.49071 553.204 6.0949 553.204 8.14323H559.042C560.204 8.14323 561.572 8.63323 561.572 10.0251C561.572 10.7724 561.169 11.6191 559.714 11.8926V11.9248C560.564 11.9248 562.036 12.4148 562.036 13.8925C562.036 15.4177 560.446 15.8415 559.594 15.8415L553.202 15.8483C553.201 20.181 553.2 24 553.2 24H559.342C561.018 24 563.2 22.4561 563.2 20.108V0H557.068Z" fill="#081F2D"></path><path fill-rule="evenodd" clip-rule="evenodd" d="M555.171 12.487L555.167 14.6075L557.571 14.616C558.039 14.616 558.627 14.2203 558.627 13.5324C558.627 12.9244 558.119 12.4828 557.575 12.487C557.233 12.4913 556.682 12.4896 556.191 12.4879C555.893 12.487 555.615 12.4862 555.419 12.4862C555.304 12.4862 555.218 12.4862 555.171 12.487Z" fill="#081F2D"></path><path fill-rule="evenodd" clip-rule="evenodd" d="M555.171 12.487L555.167 14.6075L557.571 14.616C558.039 14.616 558.627 14.2203 558.627 13.5324C558.627 12.9244 558.119 12.4828 557.575 12.487C557.233 12.4913 556.682 12.4896 556.191 12.4879C555.893 12.487 555.615 12.4862 555.419 12.4862C555.304 12.4862 555.218 12.4862 555.171 12.487Z" fill="#081F2D"></path><path fill-rule="evenodd" clip-rule="evenodd" d="M555.162 9.35847L555.154 11.2888L557.426 11.3049C557.805 11.2973 558.335 10.9559 558.335 10.3597C558.335 9.75081 557.871 9.34063 557.378 9.35167C557.056 9.35932 556.615 9.35592 556.208 9.35252C555.989 9.35082 555.78 9.34912 555.604 9.34912C555.4 9.34912 555.241 9.35167 555.162 9.35847Z" fill="#081F2D"></path><path fill-rule="evenodd" clip-rule="evenodd" d="M555.162 9.35847L555.154 11.2888L557.426 11.3049C557.805 11.2973 558.335 10.9559 558.335 10.3597C558.335 9.75081 557.871 9.34063 557.378 9.35167C557.056 9.35932 556.615 9.35592 556.208 9.35252C555.989 9.35082 555.78 9.34912 555.604 9.34912C555.4 9.34912 555.241 9.35167 555.162 9.35847Z" fill="#081F2D"></path></g><defs><clipPath id="clip0"><rect width="88" height="24" fill="white" transform="translate(164)"></rect></clipPath><clipPath id="clip1"><rect width="92.8" height="24" fill="white" transform="translate(412.801)"></rect></clipPath><clipPath id="clip2"><rect width="32" height="24" fill="white" transform="translate(531.2)"></rect></clipPath></defs></svg> 